<svg width="205" height="43" viewBox="0 0 205 43" fill="none" xmlns="http://www.w3.org/2000/svg">
<path d="M0.5 0.5H204.5V42.5H0.5V0.5Z" stroke="#FFBF1D"/>
<path d="M36.612 27.478C36.228 27.754 35.736 27.952 35.136 28.072C34.548 28.192 33.942 28.252 33.318 28.252C32.562 28.252 31.842 28.138 31.158 27.91C30.486 27.67 29.892 27.292 29.376 26.776C28.86 26.248 28.446 25.57 28.134 24.742C27.834 23.902 27.684 22.888 27.684 21.7C27.684 20.464 27.852 19.432 28.188 18.604C28.536 17.764 28.98 17.092 29.52 16.588C30.072 16.072 30.684 15.706 31.356 15.49C32.028 15.262 32.7 15.148 33.372 15.148C34.092 15.148 34.698 15.196 35.19 15.292C35.694 15.388 36.108 15.502 36.432 15.634L35.946 17.722C35.67 17.59 35.34 17.494 34.956 17.434C34.584 17.374 34.128 17.344 33.588 17.344C32.592 17.344 31.788 17.698 31.176 18.406C30.576 19.114 30.276 20.212 30.276 21.7C30.276 22.348 30.348 22.942 30.492 23.482C30.636 24.01 30.852 24.466 31.14 24.85C31.44 25.222 31.806 25.516 32.238 25.732C32.682 25.936 33.192 26.038 33.768 26.038C34.308 26.038 34.764 25.984 35.136 25.876C35.508 25.768 35.832 25.63 36.108 25.462L36.612 27.478ZM38.0807 19.018C38.5007 18.982 39.0047 18.946 39.5927 18.91C40.1927 18.874 40.8347 18.856 41.5187 18.856C42.8387 18.856 43.7747 19.048 44.3267 19.432C44.8907 19.804 45.1727 20.368 45.1727 21.124C45.1727 21.544 45.0527 21.952 44.8127 22.348C44.5727 22.744 44.1947 23.032 43.6787 23.212V23.284C44.3267 23.428 44.7947 23.686 45.0827 24.058C45.3707 24.418 45.5147 24.886 45.5147 25.462C45.5147 26.362 45.1667 27.034 44.4707 27.478C43.7867 27.922 42.6827 28.144 41.1587 28.144C40.6547 28.144 40.1207 28.126 39.5567 28.09C38.9927 28.066 38.5007 28.03 38.0807 27.982V19.018ZM40.3667 26.2C40.5347 26.224 40.6907 26.242 40.8347 26.254C40.9787 26.266 41.1587 26.272 41.3747 26.272C42.0227 26.272 42.4847 26.182 42.7607 26.002C43.0367 25.822 43.1747 25.546 43.1747 25.174C43.1747 24.862 43.0547 24.61 42.8147 24.418C42.5867 24.214 42.1727 24.112 41.5727 24.112H40.3667V26.2ZM41.6087 22.672C41.9927 22.672 42.3047 22.582 42.5447 22.402C42.7967 22.21 42.9227 21.97 42.9227 21.682C42.9227 21.37 42.8147 21.136 42.5987 20.98C42.3947 20.812 42.0167 20.728 41.4647 20.728C41.1887 20.728 40.9667 20.734 40.7987 20.746C40.6427 20.758 40.4987 20.77 40.3667 20.782V22.672H41.6087ZM51.9206 24.598L50.8406 24.814L49.1126 28H46.3226L48.0686 25.174L48.9506 24.508C48.3626 24.412 47.8766 24.136 47.4926 23.68C47.1086 23.212 46.9166 22.63 46.9166 21.934C46.9166 20.842 47.2766 20.038 47.9966 19.522C48.7286 19.006 49.8446 18.748 51.3446 18.748C51.9206 18.748 52.4546 18.778 52.9466 18.838C53.4506 18.898 53.8886 18.964 54.2606 19.036V28H51.9206V24.598ZM51.9206 23.374V20.89C51.7886 20.83 51.6446 20.788 51.4886 20.764C51.3326 20.74 51.1826 20.728 51.0386 20.728C50.4986 20.728 50.0786 20.842 49.7786 21.07C49.4786 21.298 49.3286 21.64 49.3286 22.096C49.3286 22.552 49.4906 22.888 49.8146 23.104C50.1506 23.32 50.6366 23.422 51.2726 23.41L51.9206 23.374ZM59.5513 24.346L57.7153 28H55.0873L57.4453 23.878L58.0573 23.338L57.1393 22.654L55.2853 19H57.7873L59.4613 22.654H60.2353V19H62.4673V22.834L63.1513 22.582L64.8433 19H67.3273L65.3653 22.654L64.6633 23.23L65.5813 23.95L67.7593 28H65.0773L63.2413 24.274H62.4673V28H60.2353V24.094L59.5513 24.346ZM74.1198 23.896L74.2098 22.618H74.1558L73.3818 23.932L70.1778 28H68.7018V19H71.0418V23.284L70.9338 24.508H71.0058L71.7438 23.23L74.9838 19H76.4598V28H74.1198V23.896ZM84.9904 21.07H82.4524V28H80.0404V21.07H77.5024V19H84.9904V21.07ZM93.0932 27.226C92.7332 27.514 92.2412 27.76 91.6172 27.964C91.0052 28.156 90.3512 28.252 89.6552 28.252C88.2032 28.252 87.1412 27.832 86.4692 26.992C85.7972 26.14 85.4612 24.976 85.4612 23.5C85.4612 21.916 85.8392 20.728 86.5952 19.936C87.3512 19.144 88.4132 18.748 89.7812 18.748C90.2372 18.748 90.6812 18.808 91.1132 18.928C91.5452 19.048 91.9292 19.246 92.2652 19.522C92.6012 19.798 92.8712 20.17 93.0752 20.638C93.2792 21.106 93.3812 21.688 93.3812 22.384C93.3812 22.636 93.3632 22.906 93.3272 23.194C93.3032 23.482 93.2612 23.782 93.2012 24.094H87.8012C87.8372 24.85 88.0292 25.42 88.3772 25.804C88.7372 26.188 89.3132 26.38 90.1052 26.38C90.5972 26.38 91.0352 26.308 91.4192 26.164C91.8152 26.008 92.1152 25.852 92.3192 25.696L93.0932 27.226ZM89.7452 20.62C89.1332 20.62 88.6772 20.806 88.3772 21.178C88.0892 21.538 87.9152 22.024 87.8552 22.636H91.2032C91.2512 21.988 91.1492 21.49 90.8972 21.142C90.6572 20.794 90.2732 20.62 89.7452 20.62ZM101.318 27.442C100.958 27.706 100.52 27.904 100.004 28.036C99.4999 28.18 98.9779 28.252 98.4379 28.252C97.7179 28.252 97.1059 28.138 96.6019 27.91C96.1099 27.682 95.7079 27.364 95.3959 26.956C95.0839 26.536 94.8559 26.032 94.7119 25.444C94.5799 24.856 94.5139 24.208 94.5139 23.5C94.5139 21.976 94.8559 20.806 95.5399 19.99C96.2239 19.162 97.2199 18.748 98.5279 18.748C99.1879 18.748 99.7159 18.802 100.112 18.91C100.52 19.018 100.886 19.156 101.21 19.324L100.652 21.232C100.376 21.1 100.1 20.998 99.8239 20.926C99.5599 20.854 99.2539 20.818 98.9059 20.818C98.2579 20.818 97.7659 21.034 97.4299 21.466C97.0939 21.886 96.9259 22.564 96.9259 23.5C96.9259 23.884 96.9679 24.238 97.0519 24.562C97.1359 24.886 97.2619 25.168 97.4299 25.408C97.5979 25.648 97.8139 25.84 98.0779 25.984C98.3539 26.116 98.6719 26.182 99.0319 26.182C99.4279 26.182 99.7639 26.134 100.04 26.038C100.316 25.93 100.562 25.804 100.778 25.66L101.318 27.442ZM105.073 26.038C105.433 26.11 105.775 26.146 106.099 26.146C106.675 26.146 107.089 26.05 107.341 25.858C107.605 25.654 107.737 25.342 107.737 24.922C107.737 24.142 107.209 23.752 106.153 23.752C105.757 23.752 105.397 23.794 105.073 23.878V26.038ZM105.073 22.204C105.361 22.156 105.649 22.126 105.937 22.114C106.237 22.09 106.507 22.078 106.747 22.078C107.371 22.078 107.899 22.15 108.331 22.294C108.763 22.426 109.111 22.618 109.375 22.87C109.651 23.122 109.849 23.422 109.969 23.77C110.089 24.106 110.149 24.472 110.149 24.868C110.149 25.96 109.825 26.776 109.177 27.316C108.529 27.856 107.431 28.126 105.883 28.126C105.199 28.126 104.605 28.114 104.101 28.09C103.609 28.066 103.153 28.036 102.733 28V19H105.073V22.204ZM121.955 27.442C121.595 27.706 121.157 27.904 120.641 28.036C120.137 28.18 119.615 28.252 119.075 28.252C118.355 28.252 117.743 28.138 117.239 27.91C116.747 27.682 116.345 27.364 116.033 26.956C115.721 26.536 115.493 26.032 115.349 25.444C115.217 24.856 115.151 24.208 115.151 23.5C115.151 21.976 115.493 20.806 116.177 19.99C116.861 19.162 117.857 18.748 119.165 18.748C119.825 18.748 120.353 18.802 120.749 18.91C121.157 19.018 121.523 19.156 121.847 19.324L121.289 21.232C121.013 21.1 120.737 20.998 120.461 20.926C120.197 20.854 119.891 20.818 119.543 20.818C118.895 20.818 118.403 21.034 118.067 21.466C117.731 21.886 117.563 22.564 117.563 23.5C117.563 23.884 117.605 24.238 117.689 24.562C117.773 24.886 117.899 25.168 118.067 25.408C118.235 25.648 118.451 25.84 118.715 25.984C118.991 26.116 119.309 26.182 119.669 26.182C120.065 26.182 120.401 26.134 120.677 26.038C120.953 25.93 121.199 25.804 121.415 25.66L121.955 27.442ZM122.639 23.5C122.639 21.976 123.011 20.806 123.755 19.99C124.499 19.162 125.543 18.748 126.887 18.748C127.607 18.748 128.231 18.862 128.759 19.09C129.287 19.318 129.725 19.642 130.073 20.062C130.421 20.47 130.679 20.968 130.847 21.556C131.027 22.144 131.117 22.792 131.117 23.5C131.117 25.024 130.745 26.2 130.001 27.028C129.269 27.844 128.231 28.252 126.887 28.252C126.167 28.252 125.543 28.138 125.015 27.91C124.487 27.682 124.043 27.364 123.683 26.956C123.335 26.536 123.071 26.032 122.891 25.444C122.723 24.856 122.639 24.208 122.639 23.5ZM125.051 23.5C125.051 23.896 125.087 24.262 125.159 24.598C125.231 24.934 125.339 25.228 125.483 25.48C125.627 25.732 125.813 25.93 126.041 26.074C126.281 26.206 126.563 26.272 126.887 26.272C127.499 26.272 127.955 26.05 128.255 25.606C128.555 25.162 128.705 24.46 128.705 23.5C128.705 22.672 128.567 22.006 128.291 21.502C128.015 20.986 127.547 20.728 126.887 20.728C126.311 20.728 125.861 20.944 125.537 21.376C125.213 21.808 125.051 22.516 125.051 23.5ZM144.996 23.878L145.14 22.006H145.05L144.33 23.554L142.638 26.344H141.792L139.938 23.554L139.254 22.006H139.146L139.38 23.86V28H137.292V19H139.722L141.792 22.384L142.296 23.518H142.368L142.89 22.348L144.798 19H147.246V28H144.996V23.878ZM154.554 24.454H151.62V28H149.28V19H151.62V22.384H154.554V19H156.894V28H154.554V24.454ZM158.516 23.5C158.516 21.976 158.888 20.806 159.632 19.99C160.376 19.162 161.42 18.748 162.764 18.748C163.484 18.748 164.108 18.862 164.636 19.09C165.164 19.318 165.602 19.642 165.95 20.062C166.298 20.47 166.556 20.968 166.724 21.556C166.904 22.144 166.994 22.792 166.994 23.5C166.994 25.024 166.622 26.2 165.878 27.028C165.146 27.844 164.108 28.252 162.764 28.252C162.044 28.252 161.42 28.138 160.892 27.91C160.364 27.682 159.92 27.364 159.56 26.956C159.212 26.536 158.948 26.032 158.768 25.444C158.6 24.856 158.516 24.208 158.516 23.5ZM160.928 23.5C160.928 23.896 160.964 24.262 161.036 24.598C161.108 24.934 161.216 25.228 161.36 25.48C161.504 25.732 161.69 25.93 161.918 26.074C162.158 26.206 162.44 26.272 162.764 26.272C163.376 26.272 163.832 26.05 164.132 25.606C164.432 25.162 164.582 24.46 164.582 23.5C164.582 22.672 164.444 22.006 164.168 21.502C163.892 20.986 163.424 20.728 162.764 20.728C162.188 20.728 161.738 20.944 161.414 21.376C161.09 21.808 160.928 22.516 160.928 23.5ZM174.034 23.896L174.124 22.618H174.07L173.296 23.932L170.092 28H168.616V19H170.956V23.284L170.848 24.508H170.92L171.658 23.23L174.898 19H176.374V28H174.034V23.896ZM171.532 15.328C171.616 15.796 171.754 16.126 171.946 16.318C172.15 16.51 172.408 16.606 172.72 16.606C173.056 16.606 173.32 16.51 173.512 16.318C173.716 16.126 173.854 15.802 173.926 15.346L175.708 15.796C175.564 16.576 175.21 17.158 174.646 17.542C174.082 17.914 173.422 18.1 172.666 18.1C172.294 18.1 171.934 18.058 171.586 17.974C171.238 17.89 170.926 17.758 170.65 17.578C170.374 17.386 170.14 17.146 169.948 16.858C169.756 16.57 169.624 16.216 169.552 15.796L171.532 15.328Z" fill="white"/>
</svg>
