<svg width="127" height="55" viewBox="0 0 127 55" fill="none" xmlns="http://www.w3.org/2000/svg">
<path d="M3.64335 50.061L3.20462 51.7026L14.6829 51.6924C15.0911 51.6924 15.2951 51.8453 15.2951 52.1512C15.2951 52.226 15.2815 52.311 15.2543 52.4062L14.9686 53.4258C14.8462 53.9016 14.5333 54.1396 14.0299 54.1396H2.80671C1.31708 54.1396 0.572266 53.5618 0.572266 52.4062C0.572266 52.1071 0.62328 51.7672 0.72531 51.3865L2.0925 46.2882C2.58224 44.4529 3.76579 43.5352 5.64313 43.5352H16.8868C17.2881 43.5352 17.4887 43.6847 17.4887 43.9838C17.4887 44.0586 17.4751 44.1436 17.4479 44.2387L17.1622 45.2686C17.033 45.7444 16.7167 45.9823 16.2134 45.9823H4.72486L4.28614 47.6138H15.7746C16.1828 47.6138 16.3868 47.7667 16.3868 48.0726C16.3868 48.1474 16.3732 48.2324 16.346 48.3275L16.0807 49.3472C15.9515 49.823 15.6318 50.061 15.1217 50.061H3.64335Z" fill="white"/>
<path d="M20.0599 45.9721L19.611 47.6138H29.2935L29.7425 45.9823L20.0599 45.9721ZM18.9682 50.061L18.5192 51.6924H28.2018L28.6508 50.061H18.9682ZM17.9683 44.2489C18.0907 43.7731 18.4104 43.5352 18.9274 43.5352H30.1404C31.6232 43.5352 32.3646 44.113 32.3646 45.2686C32.3646 45.5677 32.3136 45.9076 32.2116 46.2882L32.0789 46.7981C31.7797 47.8925 31.3307 48.5723 30.7322 48.8374C31.011 49.0005 31.1505 49.3132 31.1505 49.7755C31.1505 50.0813 31.0927 50.4484 30.977 50.8767L30.8342 51.3865C30.3444 53.2219 29.1643 54.1396 27.2938 54.1396H16.0807C15.6726 54.1328 15.4686 53.9764 15.4686 53.6705C15.4686 53.5957 15.4788 53.5142 15.4992 53.4258L17.9683 44.2489Z" fill="white"/>
<path d="M35.3643 45.9721L34.6399 48.6334H44.3225L45.0469 45.9823L35.3643 45.9721ZM33.2727 44.2489C33.4019 43.7731 33.7182 43.5352 34.2216 43.5352H45.4448C46.9276 43.5352 47.669 44.113 47.669 45.2686C47.669 45.5677 47.618 45.9076 47.516 46.2882L46.9548 48.3275C46.4651 50.1629 45.285 51.0806 43.4144 51.0806H33.9869L33.3543 53.4258C33.2319 53.9016 32.9156 54.1396 32.4054 54.1396H31.3851C30.977 54.1396 30.773 53.9832 30.773 53.6705C30.773 53.6025 30.7832 53.521 30.8036 53.4258L33.2727 44.2489Z" fill="white"/>
<path d="M50.6687 45.9721L49.1383 51.6924L58.8209 51.7026L60.3615 45.9823L50.6687 45.9721ZM60.7492 43.5352C62.232 43.5352 62.9735 44.113 62.9735 45.2686C62.9735 45.5677 62.9224 45.9076 62.8204 46.2882L61.4532 51.3865C60.9635 53.2219 59.7833 54.1396 57.9128 54.1396H48.7301C47.2473 54.1396 46.5059 53.5618 46.5059 52.4062C46.5059 52.1071 46.5569 51.7672 46.659 51.3865L48.0261 46.2882C48.5159 44.4529 49.6994 43.5352 51.5768 43.5352H60.7492Z" fill="white"/>
<path d="M64.8202 50.2343L63.9631 53.4258C63.8407 53.9016 63.5244 54.1396 63.0143 54.1396H61.994C61.5859 54.1396 61.3818 53.9832 61.3818 53.6705C61.3818 53.6025 61.392 53.521 61.4124 53.4258L63.8713 44.2591C64.0074 43.7833 64.327 43.5454 64.8304 43.5454H65.8507C66.2588 43.5454 66.4629 43.6983 66.4629 44.0042C66.4629 44.079 66.4493 44.164 66.422 44.2591L65.5752 47.4404C65.5344 47.4744 65.514 47.5016 65.514 47.522V47.5322C65.514 47.539 65.5174 47.5424 65.5242 47.5424C65.5854 47.5424 65.7316 47.4914 65.9629 47.3895L74.4518 43.5352H79.4512L67.9525 48.8374L76.6148 54.1396H71.6153L65.1875 50.2853C65.0106 50.1833 64.8916 50.1323 64.8304 50.1323C64.8168 50.1323 64.8066 50.1391 64.7998 50.1527C64.7998 50.1731 64.8066 50.2003 64.8202 50.2343Z" fill="white"/>
<path d="M81.2775 45.9721L80.5531 48.6334H90.2357L90.9601 45.9823L81.2775 45.9721ZM79.1859 44.2489C79.3152 43.7731 79.6314 43.5352 80.1348 43.5352H91.358C92.8409 43.5352 93.5823 44.113 93.5823 45.2686C93.5823 45.5677 93.5313 45.9076 93.4292 46.2882L92.8681 48.3275C92.3783 50.1629 91.1982 51.0806 89.3277 51.0806H79.9001L79.2675 53.4258C79.1451 53.9016 78.8288 54.1396 78.3187 54.1396H77.2984C76.8903 54.1396 76.6862 53.9832 76.6862 53.6705C76.6862 53.6025 76.6964 53.521 76.7168 53.4258L79.1859 44.2489Z" fill="white"/>
<path d="M96.4595 52.1003L94.5414 54.1396H91.6641L100.143 45.1768C101.156 44.0824 102.139 43.5352 103.091 43.5352C104.044 43.5352 104.741 44.0824 105.183 45.1768L108.846 54.1396H105.969L105.132 52.1003H96.4595ZM104.132 49.6531L102.52 45.6968L98.7858 49.6531H104.132Z" fill="white"/>
<path d="M112.835 50.061L111.927 53.4258C111.805 53.9016 111.488 54.1396 110.978 54.1396H109.958C109.55 54.1396 109.346 53.9832 109.346 53.6705C109.346 53.6025 109.356 53.521 109.376 53.4258L111.886 44.045H111.897C111.985 43.7051 112.284 43.5352 112.794 43.5352H113.815C114.223 43.5352 114.427 43.6915 114.427 44.0042C114.427 44.0722 114.417 44.1538 114.396 44.2489L113.488 47.6138H123.181L124.14 44.045H124.15C124.239 43.7051 124.538 43.5352 125.048 43.5352H126.068C126.477 43.5352 126.681 43.6915 126.681 44.0042C126.681 44.0722 126.67 44.1538 126.65 44.2489L124.181 53.4258C124.058 53.9016 123.742 54.1396 123.232 54.1396H122.212C121.804 54.1396 121.6 53.9832 121.6 53.6705C121.6 53.6025 121.61 53.521 121.63 53.4258L122.538 50.061H112.835Z" fill="white"/>
<path fill-rule="evenodd" clip-rule="evenodd" d="M88.2325 17.2463C88.2325 26.2966 77.318 33.6332 63.8543 33.6332C50.3906 33.6332 39.4761 26.2966 39.4761 17.2463C39.4761 8.19605 50.3906 0.859375 63.8543 0.859375C77.318 0.859375 88.2325 8.19605 88.2325 17.2463ZM78.2718 27.4547H74.0685L64.0696 21.4601C63.7945 21.3015 63.6093 21.2222 63.5141 21.2222C63.4929 21.2222 63.4771 21.2328 63.4665 21.2539C63.4665 21.2857 63.4771 21.3279 63.4982 21.3808L62.165 26.3446C61.9746 27.0847 61.4826 27.4547 60.689 27.4547H59.1019C58.467 27.4547 58.1496 27.2115 58.1496 26.7252C58.1496 26.6195 58.1655 26.4926 58.1972 26.3446L59.2538 22.4064H43.769C44.7663 23.9273 46.2151 25.3612 48.1007 26.6288C52.0173 29.2614 57.5791 30.9759 63.8543 30.9759C69.4465 30.9759 74.4722 29.6143 78.2718 27.4547ZM48.8026 7.41276C52.6684 5.03703 57.9451 3.51671 63.8543 3.51671C70.1295 3.51671 75.6913 5.23117 79.6079 7.86385C81.0215 8.81411 82.1896 9.85784 83.1061 10.9616H78.4807L65.2758 16.9562C64.916 17.1148 64.6886 17.1941 64.5933 17.1941C64.5827 17.1941 64.5775 17.1888 64.5775 17.1783V17.1624C64.5775 17.1307 64.6092 17.0884 64.6727 17.0355L65.99 12.0876C66.0323 11.9396 66.0535 11.8074 66.0535 11.6911C66.0535 11.2154 65.7361 10.9775 65.1012 10.9775H63.5141C62.7311 10.9775 62.2338 11.3475 62.0222 12.0876L61.7292 13.1796H45.7086L46.329 10.8728H62.5754C63.2872 10.8728 63.7345 10.5364 63.9172 9.86365L64.3212 8.40754C64.3597 8.27298 64.3789 8.15283 64.3789 8.04711C64.3789 7.62421 64.0952 7.41276 63.5276 7.41276H48.8026ZM83.9114 12.0433L68.3707 19.2082L80.025 26.3406C83.6845 23.7427 85.5731 20.4964 85.5731 17.2463C85.5731 15.4761 85.0128 13.7071 83.9114 12.0433ZM44.7996 16.6396L44.1792 18.9608L60.182 18.9466L60.8009 16.6396H44.7996Z" fill="white"/>
</svg>
