<svg width="160" height="32" viewBox="0 0 160 32" fill="none" xmlns="http://www.w3.org/2000/svg">
<path d="M7.924 7.382H2.464L1.288 10H0.21L4.69 0.199999H5.712L10.192 10H9.1L7.924 7.382ZM7.546 6.542L5.194 1.278L2.842 6.542H7.546ZM15.626 2.58C16.3166 2.58 16.942 2.73867 17.502 3.056C18.062 3.364 18.5006 3.80267 18.818 4.372C19.1353 4.94133 19.294 5.59 19.294 6.318C19.294 7.05533 19.1353 7.70867 18.818 8.278C18.5006 8.84733 18.062 9.29067 17.502 9.608C16.9513 9.916 16.326 10.07 15.626 10.07C15.0286 10.07 14.4873 9.94867 14.002 9.706C13.526 9.454 13.134 9.09 12.826 8.614V12.716H11.832V2.636H12.784V4.092C13.0826 3.60667 13.4746 3.23333 13.96 2.972C14.4546 2.71067 15.01 2.58 15.626 2.58ZM15.556 9.188C16.0693 9.188 16.536 9.07133 16.956 8.838C17.376 8.59533 17.7026 8.25467 17.936 7.816C18.1786 7.37733 18.3 6.878 18.3 6.318C18.3 5.758 18.1786 5.26333 17.936 4.834C17.7026 4.39533 17.376 4.05467 16.956 3.812C16.536 3.56933 16.0693 3.448 15.556 3.448C15.0333 3.448 14.562 3.56933 14.142 3.812C13.7313 4.05467 13.4046 4.39533 13.162 4.834C12.9286 5.26333 12.812 5.758 12.812 6.318C12.812 6.878 12.9286 7.37733 13.162 7.816C13.4046 8.25467 13.7313 8.59533 14.142 8.838C14.562 9.07133 15.0333 9.188 15.556 9.188ZM27.8696 6.626H21.7096C21.7656 7.39133 22.0596 8.012 22.5916 8.488C23.1236 8.95467 23.7956 9.188 24.6076 9.188C25.065 9.188 25.485 9.10867 25.8676 8.95C26.2503 8.782 26.5816 8.53933 26.8616 8.222L27.4216 8.866C27.095 9.258 26.6843 9.55667 26.1896 9.762C25.7043 9.96733 25.1676 10.07 24.5796 10.07C23.8236 10.07 23.1516 9.91133 22.5636 9.594C21.985 9.26733 21.5323 8.81933 21.2056 8.25C20.879 7.68067 20.7156 7.03667 20.7156 6.318C20.7156 5.59933 20.8696 4.95533 21.1776 4.386C21.495 3.81667 21.9243 3.37333 22.4656 3.056C23.0163 2.73867 23.6323 2.58 24.3136 2.58C24.995 2.58 25.6063 2.73867 26.1476 3.056C26.689 3.37333 27.1136 3.81667 27.4216 4.386C27.7296 4.946 27.8836 5.59 27.8836 6.318L27.8696 6.626ZM24.3136 3.434C23.6043 3.434 23.007 3.66267 22.5216 4.12C22.0456 4.568 21.775 5.156 21.7096 5.884H26.9316C26.8663 5.156 26.591 4.568 26.1056 4.12C25.6296 3.66267 25.0323 3.434 24.3136 3.434ZM30.0839 2.636H31.0779V5.898H35.7119V2.636H36.7059V10H35.7119V6.752H31.0779V10H30.0839V2.636ZM46.7132 9.132V11.778H45.7752V10H39.1812V11.778H38.2432V9.132H38.6632C39.1579 9.104 39.4939 8.74 39.6712 8.04C39.8485 7.34 39.9699 6.36 40.0352 5.1L40.1332 2.636H45.5652V9.132H46.7132ZM40.9452 5.156C40.8985 6.20133 40.8099 7.06467 40.6792 7.746C40.5485 8.418 40.3152 8.88 39.9792 9.132H44.5712V3.518H41.0292L40.9452 5.156ZM51.1843 2.58C52.1457 2.58 52.883 2.82267 53.3963 3.308C53.9097 3.784 54.1663 4.49333 54.1663 5.436V10H53.2143V8.852C52.9903 9.23467 52.659 9.53333 52.2203 9.748C51.791 9.96267 51.2777 10.07 50.6803 10.07C49.859 10.07 49.2057 9.874 48.7203 9.482C48.235 9.09 47.9923 8.572 47.9923 7.928C47.9923 7.30267 48.2163 6.79867 48.6643 6.416C49.1217 6.03333 49.845 5.842 50.8343 5.842H53.1723V5.394C53.1723 4.75933 52.995 4.27867 52.6403 3.952C52.2857 3.616 51.7677 3.448 51.0863 3.448C50.6197 3.448 50.1717 3.52733 49.7423 3.686C49.313 3.83533 48.9443 4.04533 48.6363 4.316L48.1883 3.574C48.5617 3.25667 49.0097 3.014 49.5323 2.846C50.055 2.66867 50.6057 2.58 51.1843 2.58ZM50.8343 9.286C51.3943 9.286 51.875 9.16 52.2763 8.908C52.6777 8.64667 52.9763 8.27333 53.1723 7.788V6.584H50.8623C49.6023 6.584 48.9723 7.02267 48.9723 7.9C48.9723 8.32933 49.1357 8.67 49.4623 8.922C49.789 9.16467 50.2463 9.286 50.8343 9.286ZM63.5565 10.07C62.8285 10.07 62.1752 9.91133 61.5965 9.594C61.0272 9.27667 60.5792 8.83333 60.2525 8.264C59.9258 7.68533 59.7625 7.03667 59.7625 6.318C59.7625 5.59933 59.9258 4.95533 60.2525 4.386C60.5792 3.81667 61.0272 3.37333 61.5965 3.056C62.1752 2.73867 62.8285 2.58 63.5565 2.58C64.1912 2.58 64.7558 2.706 65.2505 2.958C65.7545 3.20067 66.1512 3.56 66.4405 4.036L65.6985 4.54C65.4558 4.176 65.1478 3.90533 64.7745 3.728C64.4012 3.54133 63.9952 3.448 63.5565 3.448C63.0245 3.448 62.5438 3.56933 62.1145 3.812C61.6945 4.04533 61.3632 4.38133 61.1205 4.82C60.8872 5.25867 60.7705 5.758 60.7705 6.318C60.7705 6.88733 60.8872 7.39133 61.1205 7.83C61.3632 8.25933 61.6945 8.59533 62.1145 8.838C62.5438 9.07133 63.0245 9.188 63.5565 9.188C63.9952 9.188 64.4012 9.09933 64.7745 8.922C65.1478 8.74467 65.4558 8.474 65.6985 8.11L66.4405 8.614C66.1512 9.09 65.7545 9.454 65.2505 9.706C64.7465 9.94867 64.1818 10.07 63.5565 10.07ZM74.9732 2.636V10H73.9792V3.518H69.3592V10H68.3652V2.636H74.9732ZM84.2388 6.626H78.0788C78.1348 7.39133 78.4288 8.012 78.9608 8.488C79.4928 8.95467 80.1648 9.188 80.9768 9.188C81.4341 9.188 81.8541 9.10867 82.2368 8.95C82.6194 8.782 82.9508 8.53933 83.2308 8.222L83.7908 8.866C83.4641 9.258 83.0534 9.55667 82.5588 9.762C82.0734 9.96733 81.5368 10.07 80.9488 10.07C80.1928 10.07 79.5208 9.91133 78.9328 9.594C78.3541 9.26733 77.9014 8.81933 77.5748 8.25C77.2481 7.68067 77.0848 7.03667 77.0848 6.318C77.0848 5.59933 77.2388 4.95533 77.5468 4.386C77.8641 3.81667 78.2934 3.37333 78.8348 3.056C79.3854 2.73867 80.0014 2.58 80.6828 2.58C81.3641 2.58 81.9754 2.73867 82.5168 3.056C83.0581 3.37333 83.4828 3.81667 83.7908 4.386C84.0988 4.946 84.2528 5.59 84.2528 6.318L84.2388 6.626ZM80.6828 3.434C79.9734 3.434 79.3761 3.66267 78.8908 4.12C78.4148 4.568 78.1441 5.156 78.0788 5.884H83.3008C83.2354 5.156 82.9601 4.568 82.4748 4.12C81.9988 3.66267 81.4014 3.434 80.6828 3.434ZM94.1251 9.132V11.848H93.1871V10H86.4531V2.636H87.4471V9.132H91.9411V2.636H92.9351V9.132H94.1251ZM101.203 3.518H98.4174V10H97.4234V3.518H94.6374V2.636H101.203V3.518ZM108.739 6.626H102.579C102.635 7.39133 102.929 8.012 103.461 8.488C103.993 8.95467 104.665 9.188 105.477 9.188C105.934 9.188 106.354 9.10867 106.737 8.95C107.119 8.782 107.451 8.53933 107.731 8.222L108.291 8.866C107.964 9.258 107.553 9.55667 107.059 9.762C106.573 9.96733 106.037 10.07 105.449 10.07C104.693 10.07 104.021 9.91133 103.433 9.594C102.854 9.26733 102.401 8.81933 102.075 8.25C101.748 7.68067 101.585 7.03667 101.585 6.318C101.585 5.59933 101.739 4.95533 102.047 4.386C102.364 3.81667 102.793 3.37333 103.335 3.056C103.885 2.73867 104.501 2.58 105.183 2.58C105.864 2.58 106.475 2.73867 107.017 3.056C107.558 3.37333 107.983 3.81667 108.291 4.386C108.599 4.946 108.753 5.59 108.753 6.318L108.739 6.626ZM105.183 3.434C104.473 3.434 103.876 3.66267 103.391 4.12C102.915 4.568 102.644 5.156 102.579 5.884H107.801C107.735 5.156 107.46 4.568 106.975 4.12C106.499 3.66267 105.901 3.434 105.183 3.434ZM115.354 10L113.016 6.92L110.664 10H109.544L112.456 6.22L109.684 2.636H110.804L113.016 5.52L115.228 2.636H116.32L113.548 6.22L116.488 10H115.354ZM118.117 2.636H119.111V5.898H123.745V2.636H124.739V10H123.745V6.752H119.111V10H118.117V2.636ZM127.564 2.636H128.558V8.488L133.472 2.636H134.354V10H133.36V4.148L128.46 10H127.564V2.636ZM139.877 6.724H138.197V10H137.203V2.636H138.197V5.87H139.891L142.481 2.636H143.559L140.661 6.206L143.769 10H142.593L139.877 6.724ZM145.338 2.636H146.332V8.488L151.246 2.636H152.128V10H151.134V4.148L146.234 10H145.338V2.636ZM1.596 20.2H2.632V29.104H8.12V30H1.596V20.2ZM9.84014 20.2H10.8761V30H9.84014V20.2ZM20.9948 29.104V30H14.0648V20.2H20.7848V21.096H15.1008V24.582H20.1688V25.464H15.1008V29.104H20.9948ZM29.604 24.946C30.248 25.086 30.7427 25.366 31.088 25.786C31.4427 26.1967 31.62 26.7287 31.62 27.382C31.62 28.222 31.3073 28.8707 30.682 29.328C30.066 29.776 29.1513 30 27.938 30H23.43V20.2H27.658C28.75 20.2 29.5947 20.4193 30.192 20.858C30.7987 21.2967 31.102 21.9173 31.102 22.72C31.102 23.2613 30.9667 23.7233 30.696 24.106C30.4347 24.4793 30.0707 24.7593 29.604 24.946ZM24.466 21.054V24.61H27.588C28.3813 24.61 28.9927 24.4607 29.422 24.162C29.8513 23.854 30.066 23.4107 30.066 22.832C30.066 22.2533 29.8513 21.8147 29.422 21.516C28.9927 21.208 28.3813 21.054 27.588 21.054H24.466ZM27.924 29.146C28.8013 29.146 29.464 28.9967 29.912 28.698C30.36 28.3993 30.584 27.9327 30.584 27.298C30.584 26.0753 29.6973 25.464 27.924 25.464H24.466V29.146H27.924ZM42.1747 20.2V30H41.1527V25.478H35.0207V30H33.9847V20.2H35.0207V24.568H41.1527V20.2H42.1747ZM52.3033 29.104V30H45.3733V20.2H52.0933V21.096H46.4093V24.582H51.4773V25.464H46.4093V29.104H52.3033ZM61.4306 30L59.1906 26.85C58.9386 26.878 58.6772 26.892 58.4066 26.892H55.7746V30H54.7386V20.2H58.4066C59.6572 20.2 60.6372 20.4987 61.3466 21.096C62.0559 21.6933 62.4106 22.5147 62.4106 23.56C62.4106 24.3253 62.2146 24.974 61.8226 25.506C61.4399 26.0287 60.8892 26.4067 60.1706 26.64L62.5646 30H61.4306ZM58.3786 26.01C59.3492 26.01 60.0912 25.7953 60.6046 25.366C61.1179 24.9367 61.3746 24.3347 61.3746 23.56C61.3746 22.7667 61.1179 22.16 60.6046 21.74C60.0912 21.3107 59.3492 21.096 58.3786 21.096H55.7746V26.01H58.3786ZM71.5478 30L69.3078 26.85C69.0558 26.878 68.7944 26.892 68.5238 26.892H65.8918V30H64.8558V20.2H68.5238C69.7744 20.2 70.7544 20.4987 71.4638 21.096C72.1731 21.6933 72.5278 22.5147 72.5278 23.56C72.5278 24.3253 72.3318 24.974 71.9398 25.506C71.5571 26.0287 71.0064 26.4067 70.2878 26.64L72.6818 30H71.5478ZM68.4958 26.01C69.4664 26.01 70.2084 25.7953 70.7218 25.366C71.2351 24.9367 71.4918 24.3347 71.4918 23.56C71.4918 22.7667 71.2351 22.16 70.7218 21.74C70.2084 21.3107 69.4664 21.096 68.4958 21.096H65.8918V26.01H68.4958ZM81.479 30.07C80.751 30.07 80.0977 29.9113 79.519 29.594C78.9497 29.2767 78.5017 28.8333 78.175 28.264C77.8483 27.6853 77.685 27.0367 77.685 26.318C77.685 25.5993 77.8483 24.9553 78.175 24.386C78.5017 23.8167 78.9497 23.3733 79.519 23.056C80.0977 22.7387 80.751 22.58 81.479 22.58C82.1137 22.58 82.6783 22.706 83.173 22.958C83.677 23.2007 84.0737 23.56 84.363 24.036L83.621 24.54C83.3783 24.176 83.0703 23.9053 82.697 23.728C82.3237 23.5413 81.9177 23.448 81.479 23.448C80.947 23.448 80.4663 23.5693 80.037 23.812C79.617 24.0453 79.2857 24.3813 79.043 24.82C78.8097 25.2587 78.693 25.758 78.693 26.318C78.693 26.8873 78.8097 27.3913 79.043 27.83C79.2857 28.2593 79.617 28.5953 80.037 28.838C80.4663 29.0713 80.947 29.188 81.479 29.188C81.9177 29.188 82.3237 29.0993 82.697 28.922C83.0703 28.7447 83.3783 28.474 83.621 28.11L84.363 28.614C84.0737 29.09 83.677 29.454 83.173 29.706C82.669 29.9487 82.1043 30.07 81.479 30.07ZM96.0138 29.104V30H89.1398V29.286L93.2138 25.296C93.7271 24.792 94.0724 24.358 94.2498 23.994C94.4364 23.6207 94.5298 23.2473 94.5298 22.874C94.5298 22.2953 94.3291 21.8473 93.9278 21.53C93.5358 21.2033 92.9711 21.04 92.2338 21.04C91.0858 21.04 90.1944 21.404 89.5598 22.132L88.8458 21.516C89.2284 21.068 89.7138 20.7227 90.3018 20.48C90.8991 20.2373 91.5711 20.116 92.3178 20.116C93.3164 20.116 94.1051 20.354 94.6838 20.83C95.2718 21.2967 95.5658 21.9407 95.5658 22.762C95.5658 23.266 95.4538 23.7513 95.2298 24.218C95.0058 24.6847 94.5811 25.2213 93.9558 25.828L90.6238 29.104H96.0138ZM101.13 30.084C100.374 30.084 99.6974 29.8833 99.1001 29.482C98.5121 29.0807 98.0501 28.5067 97.7141 27.76C97.3874 27.004 97.2241 26.1173 97.2241 25.1C97.2241 24.0827 97.3874 23.2007 97.7141 22.454C98.0501 21.698 98.5121 21.1193 99.1001 20.718C99.6974 20.3167 100.374 20.116 101.13 20.116C101.886 20.116 102.558 20.3167 103.146 20.718C103.743 21.1193 104.21 21.698 104.546 22.454C104.882 23.2007 105.05 24.0827 105.05 25.1C105.05 26.1173 104.882 27.004 104.546 27.76C104.21 28.5067 103.743 29.0807 103.146 29.482C102.558 29.8833 101.886 30.084 101.13 30.084ZM101.13 29.16C101.699 29.16 102.199 29.0013 102.628 28.684C103.067 28.3667 103.407 27.9047 103.65 27.298C103.893 26.6913 104.014 25.9587 104.014 25.1C104.014 24.2413 103.893 23.5087 103.65 22.902C103.407 22.2953 103.067 21.8333 102.628 21.516C102.199 21.1987 101.699 21.04 101.13 21.04C100.561 21.04 100.057 21.1987 99.6181 21.516C99.1888 21.8333 98.8528 22.2953 98.6101 22.902C98.3674 23.5087 98.2461 24.2413 98.2461 25.1C98.2461 25.9587 98.3674 26.6913 98.6101 27.298C98.8528 27.9047 99.1888 28.3667 99.6181 28.684C100.057 29.0013 100.561 29.16 101.13 29.16ZM110.4 30.084C109.644 30.084 108.967 29.8833 108.37 29.482C107.782 29.0807 107.32 28.5067 106.984 27.76C106.657 27.004 106.494 26.1173 106.494 25.1C106.494 24.0827 106.657 23.2007 106.984 22.454C107.32 21.698 107.782 21.1193 108.37 20.718C108.967 20.3167 109.644 20.116 110.4 20.116C111.156 20.116 111.828 20.3167 112.416 20.718C113.013 21.1193 113.48 21.698 113.816 22.454C114.152 23.2007 114.32 24.0827 114.32 25.1C114.32 26.1173 114.152 27.004 113.816 27.76C113.48 28.5067 113.013 29.0807 112.416 29.482C111.828 29.8833 111.156 30.084 110.4 30.084ZM110.4 29.16C110.969 29.16 111.468 29.0013 111.898 28.684C112.336 28.3667 112.677 27.9047 112.92 27.298C113.162 26.6913 113.284 25.9587 113.284 25.1C113.284 24.2413 113.162 23.5087 112.92 22.902C112.677 22.2953 112.336 21.8333 111.898 21.516C111.468 21.1987 110.969 21.04 110.4 21.04C109.83 21.04 109.326 21.1987 108.888 21.516C108.458 21.8333 108.122 22.2953 107.88 22.902C107.637 23.5087 107.516 24.2413 107.516 25.1C107.516 25.9587 107.637 26.6913 107.88 27.298C108.122 27.9047 108.458 28.3667 108.888 28.684C109.326 29.0013 109.83 29.16 110.4 29.16ZM119.669 30.084C118.913 30.084 118.236 29.8833 117.639 29.482C117.051 29.0807 116.589 28.5067 116.253 27.76C115.926 27.004 115.763 26.1173 115.763 25.1C115.763 24.0827 115.926 23.2007 116.253 22.454C116.589 21.698 117.051 21.1193 117.639 20.718C118.236 20.3167 118.913 20.116 119.669 20.116C120.425 20.116 121.097 20.3167 121.685 20.718C122.282 21.1193 122.749 21.698 123.085 22.454C123.421 23.2007 123.589 24.0827 123.589 25.1C123.589 26.1173 123.421 27.004 123.085 27.76C122.749 28.5067 122.282 29.0807 121.685 29.482C121.097 29.8833 120.425 30.084 119.669 30.084ZM119.669 29.16C120.238 29.16 120.738 29.0013 121.167 28.684C121.606 28.3667 121.946 27.9047 122.189 27.298C122.432 26.6913 122.553 25.9587 122.553 25.1C122.553 24.2413 122.432 23.5087 122.189 22.902C121.946 22.2953 121.606 21.8333 121.167 21.516C120.738 21.1987 120.238 21.04 119.669 21.04C119.1 21.04 118.596 21.1987 118.157 21.516C117.728 21.8333 117.392 22.2953 117.149 22.902C116.906 23.5087 116.785 24.2413 116.785 25.1C116.785 25.9587 116.906 26.6913 117.149 27.298C117.392 27.9047 117.728 28.3667 118.157 28.684C118.596 29.0013 119.1 29.16 119.669 29.16ZM134.591 23.518H130.377V30H129.383V22.636H134.591V23.518ZM138.723 30.07C138.014 30.07 137.375 29.9113 136.805 29.594C136.236 29.2673 135.788 28.8193 135.461 28.25C135.135 27.6807 134.971 27.0367 134.971 26.318C134.971 25.5993 135.135 24.9553 135.461 24.386C135.788 23.8167 136.236 23.3733 136.805 23.056C137.375 22.7387 138.014 22.58 138.723 22.58C139.433 22.58 140.072 22.7387 140.641 23.056C141.211 23.3733 141.654 23.8167 141.971 24.386C142.298 24.9553 142.461 25.5993 142.461 26.318C142.461 27.0367 142.298 27.6807 141.971 28.25C141.654 28.8193 141.211 29.2673 140.641 29.594C140.072 29.9113 139.433 30.07 138.723 30.07ZM138.723 29.188C139.246 29.188 139.713 29.0713 140.123 28.838C140.543 28.5953 140.87 28.2547 141.103 27.816C141.337 27.3773 141.453 26.878 141.453 26.318C141.453 25.758 141.337 25.2587 141.103 24.82C140.87 24.3813 140.543 24.0453 140.123 23.812C139.713 23.5693 139.246 23.448 138.723 23.448C138.201 23.448 137.729 23.5693 137.309 23.812C136.899 24.0453 136.572 24.3813 136.329 24.82C136.096 25.2587 135.979 25.758 135.979 26.318C135.979 26.878 136.096 27.3773 136.329 27.816C136.572 28.2547 136.899 28.5953 137.309 28.838C137.729 29.0713 138.201 29.188 138.723 29.188ZM151.727 29.132V31.778H150.789V30H144.195V31.778H143.257V29.132H143.677C144.172 29.104 144.508 28.74 144.685 28.04C144.862 27.34 144.984 26.36 145.049 25.1L145.147 22.636H150.579V29.132H151.727ZM145.959 25.156C145.912 26.2013 145.824 27.0647 145.693 27.746C145.562 28.418 145.329 28.88 144.993 29.132H149.585V23.518H146.043L145.959 25.156ZM156.198 22.58C157.159 22.58 157.897 22.8227 158.41 23.308C158.923 23.784 159.18 24.4933 159.18 25.436V30H158.228V28.852C158.004 29.2347 157.673 29.5333 157.234 29.748C156.805 29.9627 156.291 30.07 155.694 30.07C154.873 30.07 154.219 29.874 153.734 29.482C153.249 29.09 153.006 28.572 153.006 27.928C153.006 27.3027 153.23 26.7987 153.678 26.416C154.135 26.0333 154.859 25.842 155.848 25.842H158.186V25.394C158.186 24.7593 158.009 24.2787 157.654 23.952C157.299 23.616 156.781 23.448 156.1 23.448C155.633 23.448 155.185 23.5273 154.756 23.686C154.327 23.8353 153.958 24.0453 153.65 24.316L153.202 23.574C153.575 23.2567 154.023 23.014 154.546 22.846C155.069 22.6687 155.619 22.58 156.198 22.58ZM155.848 29.286C156.408 29.286 156.889 29.16 157.29 28.908C157.691 28.6467 157.99 28.2733 158.186 27.788V26.584H155.876C154.616 26.584 153.986 27.0227 153.986 27.9C153.986 28.3293 154.149 28.67 154.476 28.922C154.803 29.1647 155.26 29.286 155.848 29.286Z" fill="white"/>
</svg>
