<svg width="107" height="24" viewBox="0 0 107 24" fill="none" xmlns="http://www.w3.org/2000/svg">
<path d="M34.444 8.7V18.5H33.436V9.596H31.126V8.7H34.444ZM40.6926 18.584C39.9366 18.584 39.2599 18.3833 38.6626 17.982C38.0746 17.5807 37.6126 17.0067 37.2766 16.26C36.9499 15.504 36.7866 14.6173 36.7866 13.6C36.7866 12.5827 36.9499 11.7007 37.2766 10.954C37.6126 10.198 38.0746 9.61933 38.6626 9.218C39.2599 8.81667 39.9366 8.616 40.6926 8.616C41.4486 8.616 42.1206 8.81667 42.7086 9.218C43.3059 9.61933 43.7726 10.198 44.1086 10.954C44.4446 11.7007 44.6126 12.5827 44.6126 13.6C44.6126 14.6173 44.4446 15.504 44.1086 16.26C43.7726 17.0067 43.3059 17.5807 42.7086 17.982C42.1206 18.3833 41.4486 18.584 40.6926 18.584ZM40.6926 17.66C41.2619 17.66 41.7613 17.5013 42.1906 17.184C42.6293 16.8667 42.9699 16.4047 43.2126 15.798C43.4553 15.1913 43.5766 14.4587 43.5766 13.6C43.5766 12.7413 43.4553 12.0087 43.2126 11.402C42.9699 10.7953 42.6293 10.3333 42.1906 10.016C41.7613 9.69867 41.2619 9.54 40.6926 9.54C40.1233 9.54 39.6193 9.69867 39.1806 10.016C38.7513 10.3333 38.4153 10.7953 38.1726 11.402C37.9299 12.0087 37.8086 12.7413 37.8086 13.6C37.8086 14.4587 37.9299 15.1913 38.1726 15.798C38.4153 16.4047 38.7513 16.8667 39.1806 17.184C39.6193 17.5013 40.1233 17.66 40.6926 17.66ZM46.8121 12.606C46.6068 12.606 46.4295 12.5313 46.2801 12.382C46.1401 12.2327 46.0701 12.0507 46.0701 11.836C46.0701 11.6213 46.1401 11.444 46.2801 11.304C46.4295 11.1547 46.6068 11.08 46.8121 11.08C47.0175 11.08 47.1948 11.1547 47.3441 11.304C47.4935 11.444 47.5681 11.6213 47.5681 11.836C47.5681 12.0507 47.4935 12.2327 47.3441 12.382C47.1948 12.5313 47.0175 12.606 46.8121 12.606ZM46.8121 18.57C46.6068 18.57 46.4295 18.4953 46.2801 18.346C46.1401 18.1967 46.0701 18.0147 46.0701 17.8C46.0701 17.5853 46.1401 17.408 46.2801 17.268C46.4295 17.1187 46.6068 17.044 46.8121 17.044C47.0175 17.044 47.1948 17.1187 47.3441 17.268C47.4935 17.408 47.5681 17.5853 47.5681 17.8C47.5681 18.0147 47.4935 18.1967 47.3441 18.346C47.1948 18.4953 47.0175 18.57 46.8121 18.57ZM52.9289 18.584C52.1729 18.584 51.4963 18.3833 50.8989 17.982C50.3109 17.5807 49.8489 17.0067 49.5129 16.26C49.1863 15.504 49.0229 14.6173 49.0229 13.6C49.0229 12.5827 49.1863 11.7007 49.5129 10.954C49.8489 10.198 50.3109 9.61933 50.8989 9.218C51.4963 8.81667 52.1729 8.616 52.9289 8.616C53.6849 8.616 54.3569 8.81667 54.9449 9.218C55.5423 9.61933 56.0089 10.198 56.3449 10.954C56.6809 11.7007 56.8489 12.5827 56.8489 13.6C56.8489 14.6173 56.6809 15.504 56.3449 16.26C56.0089 17.0067 55.5423 17.5807 54.9449 17.982C54.3569 18.3833 53.6849 18.584 52.9289 18.584ZM52.9289 17.66C53.4983 17.66 53.9976 17.5013 54.4269 17.184C54.8656 16.8667 55.2063 16.4047 55.4489 15.798C55.6916 15.1913 55.8129 14.4587 55.8129 13.6C55.8129 12.7413 55.6916 12.0087 55.4489 11.402C55.2063 10.7953 54.8656 10.3333 54.4269 10.016C53.9976 9.69867 53.4983 9.54 52.9289 9.54C52.3596 9.54 51.8556 9.69867 51.4169 10.016C50.9876 10.3333 50.6516 10.7953 50.4089 11.402C50.1663 12.0087 50.0449 12.7413 50.0449 13.6C50.0449 14.4587 50.1663 15.1913 50.4089 15.798C50.6516 16.4047 50.9876 16.8667 51.4169 17.184C51.8556 17.5013 52.3596 17.66 52.9289 17.66ZM62.1985 18.584C61.4425 18.584 60.7658 18.3833 60.1685 17.982C59.5805 17.5807 59.1185 17.0067 58.7825 16.26C58.4558 15.504 58.2925 14.6173 58.2925 13.6C58.2925 12.5827 58.4558 11.7007 58.7825 10.954C59.1185 10.198 59.5805 9.61933 60.1685 9.218C60.7658 8.81667 61.4425 8.616 62.1985 8.616C62.9545 8.616 63.6265 8.81667 64.2145 9.218C64.8118 9.61933 65.2785 10.198 65.6145 10.954C65.9505 11.7007 66.1185 12.5827 66.1185 13.6C66.1185 14.6173 65.9505 15.504 65.6145 16.26C65.2785 17.0067 64.8118 17.5807 64.2145 17.982C63.6265 18.3833 62.9545 18.584 62.1985 18.584ZM62.1985 17.66C62.7678 17.66 63.2671 17.5013 63.6965 17.184C64.1351 16.8667 64.4758 16.4047 64.7185 15.798C64.9611 15.1913 65.0825 14.4587 65.0825 13.6C65.0825 12.7413 64.9611 12.0087 64.7185 11.402C64.4758 10.7953 64.1351 10.3333 63.6965 10.016C63.2671 9.69867 62.7678 9.54 62.1985 9.54C61.6291 9.54 61.1251 9.69867 60.6865 10.016C60.2571 10.3333 59.9211 10.7953 59.6785 11.402C59.4358 12.0087 59.3145 12.7413 59.3145 13.6C59.3145 14.4587 59.4358 15.1913 59.6785 15.798C59.9211 16.4047 60.2571 16.8667 60.6865 17.184C61.1251 17.5013 61.6291 17.66 62.1985 17.66ZM67.7834 14.272H71.4514V15.14H67.7834V14.272ZM75.5006 8.7V18.5H74.4926V9.596H72.1826V8.7H75.5006ZM84.7592 8.7V9.414L80.6572 18.5H79.5652L83.5972 9.596H78.5572V11.43H77.5632V8.7H84.7592ZM86.5699 12.606C86.3646 12.606 86.1873 12.5313 86.0379 12.382C85.8979 12.2327 85.8279 12.0507 85.8279 11.836C85.8279 11.6213 85.8979 11.444 86.0379 11.304C86.1873 11.1547 86.3646 11.08 86.5699 11.08C86.7753 11.08 86.9526 11.1547 87.1019 11.304C87.2513 11.444 87.3259 11.6213 87.3259 11.836C87.3259 12.0507 87.2513 12.2327 87.1019 12.382C86.9526 12.5313 86.7753 12.606 86.5699 12.606ZM86.5699 18.57C86.3646 18.57 86.1873 18.4953 86.0379 18.346C85.8979 18.1967 85.8279 18.0147 85.8279 17.8C85.8279 17.5853 85.8979 17.408 86.0379 17.268C86.1873 17.1187 86.3646 17.044 86.5699 17.044C86.7753 17.044 86.9526 17.1187 87.1019 17.268C87.2513 17.408 87.3259 17.5853 87.3259 17.8C87.3259 18.0147 87.2513 18.1967 87.1019 18.346C86.9526 18.4953 86.7753 18.57 86.5699 18.57ZM92.6867 18.584C91.9307 18.584 91.2541 18.3833 90.6567 17.982C90.0687 17.5807 89.6067 17.0067 89.2707 16.26C88.9441 15.504 88.7807 14.6173 88.7807 13.6C88.7807 12.5827 88.9441 11.7007 89.2707 10.954C89.6067 10.198 90.0687 9.61933 90.6567 9.218C91.2541 8.81667 91.9307 8.616 92.6867 8.616C93.4427 8.616 94.1147 8.81667 94.7027 9.218C95.3001 9.61933 95.7667 10.198 96.1027 10.954C96.4387 11.7007 96.6067 12.5827 96.6067 13.6C96.6067 14.6173 96.4387 15.504 96.1027 16.26C95.7667 17.0067 95.3001 17.5807 94.7027 17.982C94.1147 18.3833 93.4427 18.584 92.6867 18.584ZM92.6867 17.66C93.2561 17.66 93.7554 17.5013 94.1847 17.184C94.6234 16.8667 94.9641 16.4047 95.2067 15.798C95.4494 15.1913 95.5707 14.4587 95.5707 13.6C95.5707 12.7413 95.4494 12.0087 95.2067 11.402C94.9641 10.7953 94.6234 10.3333 94.1847 10.016C93.7554 9.69867 93.2561 9.54 92.6867 9.54C92.1174 9.54 91.6134 9.69867 91.1747 10.016C90.7454 10.3333 90.4094 10.7953 90.1667 11.402C89.9241 12.0087 89.8027 12.7413 89.8027 13.6C89.8027 14.4587 89.9241 15.1913 90.1667 15.798C90.4094 16.4047 90.7454 16.8667 91.1747 17.184C91.6134 17.5013 92.1174 17.66 92.6867 17.66ZM101.956 18.584C101.2 18.584 100.524 18.3833 99.9263 17.982C99.3383 17.5807 98.8763 17.0067 98.5403 16.26C98.2136 15.504 98.0503 14.6173 98.0503 13.6C98.0503 12.5827 98.2136 11.7007 98.5403 10.954C98.8763 10.198 99.3383 9.61933 99.9263 9.218C100.524 8.81667 101.2 8.616 101.956 8.616C102.712 8.616 103.384 8.81667 103.972 9.218C104.57 9.61933 105.036 10.198 105.372 10.954C105.708 11.7007 105.876 12.5827 105.876 13.6C105.876 14.6173 105.708 15.504 105.372 16.26C105.036 17.0067 104.57 17.5807 103.972 17.982C103.384 18.3833 102.712 18.584 101.956 18.584ZM101.956 17.66C102.526 17.66 103.025 17.5013 103.454 17.184C103.893 16.8667 104.234 16.4047 104.476 15.798C104.719 15.1913 104.84 14.4587 104.84 13.6C104.84 12.7413 104.719 12.0087 104.476 11.402C104.234 10.7953 103.893 10.3333 103.454 10.016C103.025 9.69867 102.526 9.54 101.956 9.54C101.387 9.54 100.883 9.69867 100.444 10.016C100.015 10.3333 99.6789 10.7953 99.4363 11.402C99.1936 12.0087 99.0723 12.7413 99.0723 13.6C99.0723 14.4587 99.1936 15.1913 99.4363 15.798C99.6789 16.4047 100.015 16.8667 100.444 17.184C100.883 17.5013 101.387 17.66 101.956 17.66Z" fill="white"/>
<g clip-path="url(#clip0_3_8263)">
<path d="M10.5 5.09375C10.5 4.9197 10.4309 4.75278 10.3078 4.62971C10.1847 4.50664 10.0178 4.4375 9.84375 4.4375C9.6697 4.4375 9.50278 4.50664 9.37971 4.62971C9.25664 4.75278 9.1875 4.9197 9.1875 5.09375V12.3125C9.18754 12.4282 9.21815 12.5418 9.27623 12.6418C9.33432 12.7418 9.41781 12.8248 9.51825 12.8821L14.112 15.5071C14.2628 15.5886 14.4394 15.6079 14.6042 15.5608C14.7689 15.5138 14.9088 15.4042 14.9938 15.2554C15.0788 15.1066 15.1023 14.9305 15.0591 14.7646C15.016 14.5988 14.9097 14.4564 14.763 14.3679L10.5 11.9319V5.09375Z" fill="#FCD127"/>
<path d="M10.5 21.5C13.2848 21.5 15.9555 20.3938 17.9246 18.4246C19.8938 16.4555 21 13.7848 21 11C21 8.21523 19.8938 5.54451 17.9246 3.57538C15.9555 1.60625 13.2848 0.5 10.5 0.5C7.71523 0.5 5.04451 1.60625 3.07538 3.57538C1.10625 5.54451 0 8.21523 0 11C0 13.7848 1.10625 16.4555 3.07538 18.4246C5.04451 20.3938 7.71523 21.5 10.5 21.5ZM19.6875 11C19.6875 13.4367 18.7195 15.7736 16.9965 17.4965C15.2736 19.2195 12.9367 20.1875 10.5 20.1875C8.06332 20.1875 5.72645 19.2195 4.00346 17.4965C2.28047 15.7736 1.3125 13.4367 1.3125 11C1.3125 8.56332 2.28047 6.22645 4.00346 4.50346C5.72645 2.78047 8.06332 1.8125 10.5 1.8125C12.9367 1.8125 15.2736 2.78047 16.9965 4.50346C18.7195 6.22645 19.6875 8.56332 19.6875 11Z" fill="#FCD127"/>
</g>
<defs>
<clipPath id="clip0_3_8263">
<rect width="21" height="21" fill="white" transform="translate(0 0.5)"/>
</clipPath>
</defs>
</svg>
