<svg width="175" height="39" viewBox="0 0 175 39" fill="none" xmlns="http://www.w3.org/2000/svg">
<path d="M37.622 9.018H33.408V15.5H32.414V8.136H37.622V9.018ZM38.4996 15.57C38.2943 15.57 38.117 15.4953 37.9676 15.346C37.8276 15.1967 37.7576 15.0147 37.7576 14.8C37.7576 14.5853 37.8276 14.408 37.9676 14.268C38.117 14.1187 38.2943 14.044 38.4996 14.044C38.705 14.044 38.8823 14.1187 39.0316 14.268C39.181 14.408 39.2556 14.5853 39.2556 14.8C39.2556 15.0147 39.181 15.1967 39.0316 15.346C38.8823 15.4953 38.705 15.57 38.4996 15.57ZM55.4765 5.7V15.5H54.4825V7.66L50.6325 14.254H50.1425L46.2925 7.702V15.5H45.2985V5.7H46.1525L50.4085 12.966L54.6225 5.7H55.4765ZM61.579 15.57C60.8696 15.57 60.2303 15.4113 59.661 15.094C59.0916 14.7673 58.6436 14.3193 58.317 13.75C57.9903 13.1807 57.827 12.5367 57.827 11.818C57.827 11.0993 57.9903 10.4553 58.317 9.886C58.6436 9.31667 59.0916 8.87333 59.661 8.556C60.2303 8.23867 60.8696 8.08 61.579 8.08C62.2883 8.08 62.9276 8.23867 63.497 8.556C64.0663 8.87333 64.5096 9.31667 64.827 9.886C65.1536 10.4553 65.317 11.0993 65.317 11.818C65.317 12.5367 65.1536 13.1807 64.827 13.75C64.5096 14.3193 64.0663 14.7673 63.497 15.094C62.9276 15.4113 62.2883 15.57 61.579 15.57ZM61.579 14.688C62.1016 14.688 62.5683 14.5713 62.979 14.338C63.399 14.0953 63.7256 13.7547 63.959 13.316C64.1923 12.8773 64.309 12.378 64.309 11.818C64.309 11.258 64.1923 10.7587 63.959 10.32C63.7256 9.88133 63.399 9.54533 62.979 9.312C62.5683 9.06933 62.1016 8.948 61.579 8.948C61.0563 8.948 60.585 9.06933 60.165 9.312C59.7543 9.54533 59.4276 9.88133 59.185 10.32C58.9516 10.7587 58.835 11.258 58.835 11.818C58.835 12.378 58.9516 12.8773 59.185 13.316C59.4276 13.7547 59.7543 14.0953 60.165 14.338C60.585 14.5713 61.0563 14.688 61.579 14.688ZM70.5213 15.57C69.7933 15.57 69.14 15.4113 68.5613 15.094C67.992 14.7767 67.544 14.3333 67.2173 13.764C66.8907 13.1853 66.7273 12.5367 66.7273 11.818C66.7273 11.0993 66.8907 10.4553 67.2173 9.886C67.544 9.31667 67.992 8.87333 68.5613 8.556C69.14 8.23867 69.7933 8.08 70.5213 8.08C71.156 8.08 71.7207 8.206 72.2153 8.458C72.7193 8.70067 73.116 9.06 73.4053 9.536L72.6633 10.04C72.4207 9.676 72.1127 9.40533 71.7393 9.228C71.366 9.04133 70.96 8.948 70.5213 8.948C69.9893 8.948 69.5087 9.06933 69.0793 9.312C68.6593 9.54533 68.328 9.88133 68.0853 10.32C67.852 10.7587 67.7353 11.258 67.7353 11.818C67.7353 12.3873 67.852 12.8913 68.0853 13.33C68.328 13.7593 68.6593 14.0953 69.0793 14.338C69.5087 14.5713 69.9893 14.688 70.5213 14.688C70.96 14.688 71.366 14.5993 71.7393 14.422C72.1127 14.2447 72.4207 13.974 72.6633 13.61L73.4053 14.114C73.116 14.59 72.7193 14.954 72.2153 15.206C71.7113 15.4487 71.1467 15.57 70.5213 15.57ZM78.004 12.224H76.324V15.5H75.33V8.136H76.324V11.37H78.018L80.608 8.136H81.686L78.788 11.706L81.896 15.5H80.72L78.004 12.224ZM88.1548 11.692C89.1534 11.9253 89.6528 12.5273 89.6528 13.498C89.6528 14.142 89.4148 14.6367 88.9388 14.982C88.4628 15.3273 87.7534 15.5 86.8108 15.5H83.4648V8.136H86.7128C87.5528 8.136 88.2108 8.29933 88.6868 8.626C89.1628 8.95267 89.4008 9.41933 89.4008 10.026C89.4008 10.4273 89.2888 10.7727 89.0648 11.062C88.8501 11.342 88.5468 11.552 88.1548 11.692ZM84.4308 11.412H86.6428C87.2121 11.412 87.6461 11.3047 87.9448 11.09C88.2528 10.8753 88.4068 10.5627 88.4068 10.152C88.4068 9.74133 88.2528 9.43333 87.9448 9.228C87.6461 9.02267 87.2121 8.92 86.6428 8.92H84.4308V11.412ZM86.7688 14.716C87.4034 14.716 87.8794 14.6133 88.1968 14.408C88.5141 14.2027 88.6728 13.8807 88.6728 13.442C88.6728 13.0033 88.5281 12.6813 88.2388 12.476C87.9494 12.2613 87.4921 12.154 86.8668 12.154H84.4308V14.716H86.7688ZM94.5164 8.08C95.4777 8.08 96.215 8.32267 96.7284 8.808C97.2417 9.284 97.4984 9.99333 97.4984 10.936V15.5H96.5464V14.352C96.3224 14.7347 95.991 15.0333 95.5524 15.248C95.123 15.4627 94.6097 15.57 94.0124 15.57C93.191 15.57 92.5377 15.374 92.0524 14.982C91.567 14.59 91.3244 14.072 91.3244 13.428C91.3244 12.8027 91.5484 12.2987 91.9964 11.916C92.4537 11.5333 93.177 11.342 94.1664 11.342H96.5044V10.894C96.5044 10.2593 96.327 9.77867 95.9724 9.452C95.6177 9.116 95.0997 8.948 94.4184 8.948C93.9517 8.948 93.5037 9.02733 93.0744 9.186C92.645 9.33533 92.2764 9.54533 91.9684 9.816L91.5204 9.074C91.8937 8.75667 92.3417 8.514 92.8644 8.346C93.387 8.16867 93.9377 8.08 94.5164 8.08ZM94.1664 14.786C94.7264 14.786 95.207 14.66 95.6084 14.408C96.0097 14.1467 96.3084 13.7733 96.5044 13.288V12.084H94.1944C92.9344 12.084 92.3044 12.5227 92.3044 13.4C92.3044 13.8293 92.4677 14.17 92.7944 14.422C93.121 14.6647 93.5784 14.786 94.1664 14.786ZM100.228 14.044C100.443 14.044 100.62 14.1187 100.76 14.268C100.9 14.408 100.97 14.5853 100.97 14.8C100.97 14.912 100.952 15.0333 100.914 15.164C100.886 15.2947 100.84 15.444 100.774 15.612L100.186 17.544H99.5145L99.9905 15.514C99.8411 15.4673 99.7198 15.3833 99.6265 15.262C99.5331 15.1313 99.4865 14.9773 99.4865 14.8C99.4865 14.5853 99.5565 14.408 99.6965 14.268C99.8365 14.1187 100.014 14.044 100.228 14.044ZM38.672 28.136L34.99 36.382C34.6913 37.0727 34.346 37.5627 33.954 37.852C33.562 38.1413 33.0907 38.286 32.54 38.286C32.1853 38.286 31.854 38.23 31.546 38.118C31.238 38.006 30.972 37.838 30.748 37.614L31.21 36.872C31.5833 37.2453 32.0313 37.432 32.554 37.432C32.89 37.432 33.1747 37.3387 33.408 37.152C33.6507 36.9653 33.8747 36.648 34.08 36.2L34.402 35.486L31.112 28.136H32.148L34.92 34.394L37.692 28.136H38.672ZM45.9125 28.136V35.5H44.9185V29.018H41.3905L41.2925 30.838C41.2178 32.3687 41.0405 33.5447 40.7605 34.366C40.4805 35.1873 39.9812 35.598 39.2625 35.598C39.0665 35.598 38.8285 35.5607 38.5485 35.486L38.6185 34.632C38.7865 34.6693 38.9032 34.688 38.9685 34.688C39.3512 34.688 39.6405 34.5107 39.8365 34.156C40.0325 33.8013 40.1632 33.3627 40.2285 32.84C40.2938 32.3173 40.3498 31.6267 40.3965 30.768L40.5225 28.136H45.9125ZM48.8082 35.57C48.6029 35.57 48.4256 35.4953 48.2762 35.346C48.1362 35.1967 48.0662 35.0147 48.0662 34.8C48.0662 34.5853 48.1362 34.408 48.2762 34.268C48.4256 34.1187 48.6029 34.044 48.8082 34.044C49.0136 34.044 49.1909 34.1187 49.3402 34.268C49.4896 34.408 49.5642 34.5853 49.5642 34.8C49.5642 35.0147 49.4896 35.1967 49.3402 35.346C49.1909 35.4953 49.0136 35.57 48.8082 35.57ZM58.8551 31.006H56.6151V35.5H55.6071V25.7H56.6151V30.096H58.8551L62.1731 25.7H63.2931L59.6531 30.46L63.5031 35.5H62.3131L58.8551 31.006ZM71.1017 28.136L67.4197 36.382C67.121 37.0727 66.7757 37.5627 66.3837 37.852C65.9917 38.1413 65.5204 38.286 64.9697 38.286C64.615 38.286 64.2837 38.23 63.9757 38.118C63.6677 38.006 63.4017 37.838 63.1777 37.614L63.6397 36.872C64.013 37.2453 64.461 37.432 64.9837 37.432C65.3197 37.432 65.6044 37.3387 65.8377 37.152C66.0804 36.9653 66.3044 36.648 66.5097 36.2L66.8317 35.486L63.5417 28.136H64.5777L67.3497 34.394L70.1217 28.136H71.1017ZM78.3422 28.136V35.5H77.3482V29.018H73.8202L73.7222 30.838C73.6475 32.3687 73.4702 33.5447 73.1902 34.366C72.9102 35.1873 72.4109 35.598 71.6922 35.598C71.4962 35.598 71.2582 35.5607 70.9782 35.486L71.0482 34.632C71.2162 34.6693 71.3329 34.688 71.3982 34.688C71.7809 34.688 72.0702 34.5107 72.2662 34.156C72.4622 33.8013 72.5929 33.3627 72.6582 32.84C72.7235 32.3173 72.7795 31.6267 72.8262 30.768L72.9522 28.136H78.3422ZM81.1679 28.136H82.1619V33.988L87.0759 28.136H87.9579V35.5H86.9639V29.648L82.0639 35.5H81.1679V28.136ZM93.4806 32.224H91.8006V35.5H90.8066V28.136H91.8006V31.37H93.4946L96.0846 28.136H97.1626L94.2646 31.706L97.3726 35.5H96.1966L93.4806 32.224ZM101.72 35.57C101.01 35.57 100.371 35.4113 99.8016 35.094C99.2322 34.7673 98.7842 34.3193 98.4576 33.75C98.1309 33.1807 97.9676 32.5367 97.9676 31.818C97.9676 31.0993 98.1309 30.4553 98.4576 29.886C98.7842 29.3167 99.2322 28.8733 99.8016 28.556C100.371 28.2387 101.01 28.08 101.72 28.08C102.429 28.08 103.068 28.2387 103.638 28.556C104.207 28.8733 104.65 29.3167 104.968 29.886C105.294 30.4553 105.458 31.0993 105.458 31.818C105.458 32.5367 105.294 33.1807 104.968 33.75C104.65 34.3193 104.207 34.7673 103.638 35.094C103.068 35.4113 102.429 35.57 101.72 35.57ZM101.72 34.688C102.242 34.688 102.709 34.5713 103.12 34.338C103.54 34.0953 103.866 33.7547 104.1 33.316C104.333 32.8773 104.45 32.378 104.45 31.818C104.45 31.258 104.333 30.7587 104.1 30.32C103.866 29.8813 103.54 29.5453 103.12 29.312C102.709 29.0693 102.242 28.948 101.72 28.948C101.197 28.948 100.726 29.0693 100.306 29.312C99.8949 29.5453 99.5682 29.8813 99.3256 30.32C99.0922 30.7587 98.9756 31.258 98.9756 31.818C98.9756 32.378 99.0922 32.8773 99.3256 33.316C99.5682 33.7547 99.8949 34.0953 100.306 34.338C100.726 34.5713 101.197 34.688 101.72 34.688ZM112.272 31.692C113.271 31.9253 113.77 32.5273 113.77 33.498C113.77 34.142 113.532 34.6367 113.056 34.982C112.58 35.3273 111.871 35.5 110.928 35.5H107.582V28.136H110.83C111.67 28.136 112.328 28.2993 112.804 28.626C113.28 28.9527 113.518 29.4193 113.518 30.026C113.518 30.4273 113.406 30.7727 113.182 31.062C112.967 31.342 112.664 31.552 112.272 31.692ZM108.548 31.412H110.76C111.329 31.412 111.763 31.3047 112.062 31.09C112.37 30.8753 112.524 30.5627 112.524 30.152C112.524 29.7413 112.37 29.4333 112.062 29.228C111.763 29.0227 111.329 28.92 110.76 28.92H108.548V31.412ZM110.886 34.716C111.521 34.716 111.997 34.6133 112.314 34.408C112.631 34.2027 112.79 33.8807 112.79 33.442C112.79 33.0033 112.645 32.6813 112.356 32.476C112.067 32.2613 111.609 32.154 110.984 32.154H108.548V34.716H110.886ZM119.18 35.57C118.452 35.57 117.798 35.4113 117.22 35.094C116.65 34.7767 116.202 34.3333 115.876 33.764C115.549 33.1853 115.386 32.5367 115.386 31.818C115.386 31.0993 115.549 30.4553 115.876 29.886C116.202 29.3167 116.65 28.8733 117.22 28.556C117.798 28.2387 118.452 28.08 119.18 28.08C119.814 28.08 120.379 28.206 120.874 28.458C121.378 28.7007 121.774 29.06 122.064 29.536L121.322 30.04C121.079 29.676 120.771 29.4053 120.398 29.228C120.024 29.0413 119.618 28.948 119.18 28.948C118.648 28.948 118.167 29.0693 117.738 29.312C117.318 29.5453 116.986 29.8813 116.744 30.32C116.51 30.7587 116.394 31.258 116.394 31.818C116.394 32.3873 116.51 32.8913 116.744 33.33C116.986 33.7593 117.318 34.0953 117.738 34.338C118.167 34.5713 118.648 34.688 119.18 34.688C119.618 34.688 120.024 34.5993 120.398 34.422C120.771 34.2447 121.079 33.974 121.322 33.61L122.064 34.114C121.774 34.59 121.378 34.954 120.874 35.206C120.37 35.4487 119.805 35.57 119.18 35.57ZM126.662 32.224H124.982V35.5H123.988V28.136H124.982V31.37H126.676L129.266 28.136H130.344L127.446 31.706L130.554 35.5H129.378L126.662 32.224ZM134.52 28.08C135.482 28.08 136.219 28.3227 136.732 28.808C137.246 29.284 137.502 29.9933 137.502 30.936V35.5H136.55V34.352C136.326 34.7347 135.995 35.0333 135.556 35.248C135.127 35.4627 134.614 35.57 134.016 35.57C133.195 35.57 132.542 35.374 132.056 34.982C131.571 34.59 131.328 34.072 131.328 33.428C131.328 32.8027 131.552 32.2987 132 31.916C132.458 31.5333 133.181 31.342 134.17 31.342H136.508V30.894C136.508 30.2593 136.331 29.7787 135.976 29.452C135.622 29.116 135.104 28.948 134.422 28.948C133.956 28.948 133.508 29.0273 133.078 29.186C132.649 29.3353 132.28 29.5453 131.972 29.816L131.524 29.074C131.898 28.7567 132.346 28.514 132.868 28.346C133.391 28.1687 133.942 28.08 134.52 28.08ZM134.17 34.786C134.73 34.786 135.211 34.66 135.612 34.408C136.014 34.1467 136.312 33.7733 136.508 33.288V32.084H134.198C132.938 32.084 132.308 32.5227 132.308 33.4C132.308 33.8293 132.472 34.17 132.798 34.422C133.125 34.6647 133.582 34.786 134.17 34.786ZM145.804 28.136V35.5H144.894V33.064H142.584H142.304L140.596 35.5H139.518L141.352 32.924C140.783 32.7653 140.344 32.4947 140.036 32.112C139.728 31.7293 139.574 31.244 139.574 30.656C139.574 29.8347 139.854 29.2093 140.414 28.78C140.974 28.3507 141.74 28.136 142.71 28.136H145.804ZM140.582 30.684C140.582 31.776 141.278 32.322 142.668 32.322H144.894V29.018H142.738C141.301 29.018 140.582 29.5733 140.582 30.684ZM148.723 34.044C148.937 34.044 149.115 34.1187 149.255 34.268C149.395 34.408 149.465 34.5853 149.465 34.8C149.465 34.912 149.446 35.0333 149.409 35.164C149.381 35.2947 149.334 35.444 149.269 35.612L148.681 37.544H148.009L148.485 35.514C148.335 35.4673 148.214 35.3833 148.121 35.262C148.027 35.1313 147.981 34.9773 147.981 34.8C147.981 34.5853 148.051 34.408 148.191 34.268C148.331 34.1187 148.508 34.044 148.723 34.044ZM157.299 25.7V35.5H156.291V26.596H153.981V25.7H157.299ZM166.334 34.604V35.5H159.46V34.786L163.534 30.796C164.047 30.292 164.393 29.858 164.57 29.494C164.757 29.1207 164.85 28.7473 164.85 28.374C164.85 27.7953 164.649 27.3473 164.248 27.03C163.856 26.7033 163.291 26.54 162.554 26.54C161.406 26.54 160.515 26.904 159.88 27.632L159.166 27.016C159.549 26.568 160.034 26.2227 160.622 25.98C161.219 25.7373 161.891 25.616 162.638 25.616C163.637 25.616 164.425 25.854 165.004 26.33C165.592 26.7967 165.886 27.4407 165.886 28.262C165.886 28.766 165.774 29.2513 165.55 29.718C165.326 30.1847 164.901 30.7213 164.276 31.328L160.944 34.604H166.334Z" fill="white"/>
<g clip-path="url(#clip0_3_8255)">
<path d="M10.4997 6.5C6.22211 6.5 2.74219 9.97992 2.74219 14.2575C2.74219 15.6657 3.37374 17.1802 3.40021 17.2441C3.60418 17.7283 4.00666 18.4803 4.29688 18.9211L9.61579 26.9802C9.83345 27.3106 10.1556 27.5 10.4997 27.5C10.8438 27.5 11.1659 27.3106 11.3836 26.9807L16.7029 18.9211C16.9936 18.4803 17.3956 17.7283 17.5996 17.2441C17.6261 17.1807 18.2572 15.6662 18.2572 14.2575C18.2572 9.97992 14.7773 6.5 10.4997 6.5ZM16.7582 16.89C16.5761 17.324 16.2014 18.0235 15.9409 18.4187L10.6215 26.4783C10.5166 26.6375 10.4833 26.6375 10.3783 26.4783L5.05894 18.4187C4.79838 18.0235 4.42374 17.3235 4.24167 16.8896C4.23391 16.8709 3.65483 15.4768 3.65483 14.2575C3.65483 10.4832 6.72543 7.41265 10.4997 7.41265C14.2739 7.41265 17.3445 10.4832 17.3445 14.2575C17.3445 15.4786 16.7641 16.8763 16.7582 16.89Z" fill="#FCD127"/>
<path d="M10.4995 10.1514C8.23476 10.1514 6.39258 11.994 6.39258 14.2583C6.39258 16.5226 8.23476 18.3652 10.4995 18.3652C12.7642 18.3652 14.6064 16.5226 14.6064 14.2583C14.6064 11.994 12.7642 10.1514 10.4995 10.1514ZM10.4995 17.4525C8.73854 17.4525 7.30523 16.0197 7.30523 14.2583C7.30523 12.4969 8.73854 11.064 10.4995 11.064C12.2604 11.064 13.6938 12.4969 13.6938 14.2583C13.6938 16.0197 12.2604 17.4525 10.4995 17.4525Z" fill="#FCD127"/>
</g>
<defs>
<clipPath id="clip0_3_8255">
<rect width="21" height="21" fill="white" transform="translate(0 6.5)"/>
</clipPath>
</defs>
</svg>
