<svg width="392" height="38" viewBox="0 0 392 38" fill="none" xmlns="http://www.w3.org/2000/svg">
<path d="M20.36 27.84C19.5067 28.4533 18.4133 28.8933 17.08 29.16C15.7733 29.4267 14.4267 29.56 13.04 29.56C11.36 29.56 9.76 29.3067 8.24 28.8C6.74667 28.2667 5.42667 27.4267 4.28 26.28C3.13333 25.1067 2.21333 23.6 1.52 21.76C0.853333 19.8933 0.52 17.64 0.52 15C0.52 12.2533 0.893333 9.96 1.64 8.12C2.41333 6.25333 3.4 4.76 4.6 3.64C5.82667 2.49333 7.18667 1.68 8.68 1.2C10.1733 0.693331 11.6667 0.439998 13.16 0.439998C14.76 0.439998 16.1067 0.546665 17.2 0.759999C18.32 0.973333 19.24 1.22667 19.96 1.52L18.88 6.16C18.2667 5.86667 17.5333 5.65333 16.68 5.52C15.8533 5.38667 14.84 5.32 13.64 5.32C11.4267 5.32 9.64 6.10667 8.28 7.68C6.94667 9.25333 6.28 11.6933 6.28 15C6.28 16.44 6.44 17.76 6.76 18.96C7.08 20.1333 7.56 21.1467 8.2 22C8.86667 22.8267 9.68 23.48 10.64 23.96C11.6267 24.4133 12.76 24.64 14.04 24.64C15.24 24.64 16.2533 24.52 17.08 24.28C17.9067 24.04 18.6267 23.7333 19.24 23.36L20.36 27.84ZM35.1438 13.6L28.8238 13.6L28.8238 29H23.6238L23.6238 9L40.3438 9V29H35.1438V13.6ZM60.9128 27.28C60.1128 27.92 59.0195 28.4667 57.6328 28.92C56.2728 29.3467 54.8195 29.56 53.2728 29.56C50.0461 29.56 47.6861 28.6267 46.1928 26.76C44.6995 24.8667 43.9528 22.28 43.9528 19C43.9528 15.48 44.7928 12.84 46.4728 11.08C48.1528 9.32 50.5128 8.44 53.5528 8.44C54.5661 8.44 55.5528 8.57333 56.5128 8.84C57.4728 9.10667 58.3261 9.54667 59.0728 10.16C59.8195 10.7733 60.4195 11.6 60.8728 12.64C61.3261 13.68 61.5528 14.9733 61.5528 16.52C61.5528 17.08 61.5128 17.68 61.4328 18.32C61.3795 18.96 61.2861 19.6267 61.1528 20.32H49.1528C49.2328 22 49.6595 23.2667 50.4328 24.12C51.2328 24.9733 52.5128 25.4 54.2728 25.4C55.3661 25.4 56.3395 25.24 57.1928 24.92C58.0728 24.5733 58.7395 24.2267 59.1928 23.88L60.9128 27.28ZM53.4728 12.6C52.1128 12.6 51.0995 13.0133 50.4328 13.84C49.7928 14.64 49.4061 15.72 49.2728 17.08L56.7128 17.08C56.8195 15.64 56.5928 14.5333 56.0328 13.76C55.4995 12.9867 54.6461 12.6 53.4728 12.6ZM84.7453 33.56H80.9453L80.3453 29L65.2253 29V9H70.4253V24.4H76.6253V9H81.8253V24.4H84.7453L84.7453 33.56ZM101.969 13.6L96.3291 13.6V29H90.9691V13.6H85.3291V9L101.969 9V13.6ZM119.975 27.28C119.175 27.92 118.082 28.4667 116.695 28.92C115.335 29.3467 113.882 29.56 112.335 29.56C109.109 29.56 106.749 28.6267 105.255 26.76C103.762 24.8667 103.015 22.28 103.015 19C103.015 15.48 103.855 12.84 105.535 11.08C107.215 9.32 109.575 8.44 112.615 8.44C113.629 8.44 114.615 8.57333 115.575 8.84C116.535 9.10667 117.389 9.54667 118.135 10.16C118.882 10.7733 119.482 11.6 119.935 12.64C120.389 13.68 120.615 14.9733 120.615 16.52C120.615 17.08 120.575 17.68 120.495 18.32C120.442 18.96 120.349 19.6267 120.215 20.32L108.215 20.32C108.295 22 108.722 23.2667 109.495 24.12C110.295 24.9733 111.575 25.4 113.335 25.4C114.429 25.4 115.402 25.24 116.255 24.92C117.135 24.5733 117.802 24.2267 118.255 23.88L119.975 27.28ZM112.535 12.6C111.175 12.6 110.162 13.0133 109.495 13.84C108.855 14.64 108.469 15.72 108.335 17.08H115.775C115.882 15.64 115.655 14.5333 115.095 13.76C114.562 12.9867 113.709 12.6 112.535 12.6ZM128.378 18.76L122.378 9H128.578L131.178 13.28L132.298 16.08L133.498 13.28L136.218 9H141.858L135.818 18.6L142.258 29H136.218L133.138 24.2L131.938 21.24L130.658 24.2L127.578 29H121.898L128.378 18.76ZM156.594 21.12L150.074 21.12V29H144.874V9H150.074V16.52H156.594V9H161.794V29H156.594V21.12ZM178.398 19.88L178.598 17.04H178.478L176.758 19.96L169.638 29H166.358V9H171.558V18.52L171.318 21.24H171.478L173.118 18.4L180.318 9H183.598V29H178.398V19.88ZM194.755 20.72H193.355V29H188.155V9H193.355V17.52L194.595 16.96L199.275 9H204.835L199.995 16.6L197.955 18.12L200.195 19.68L205.595 29H199.635L194.755 20.72ZM207.605 10.16C208.672 9.68 209.939 9.30667 211.405 9.04C212.872 8.74667 214.405 8.6 216.005 8.6C217.392 8.6 218.552 8.77333 219.485 9.12C220.419 9.44 221.152 9.90667 221.685 10.52C222.245 11.1333 222.632 11.8667 222.845 12.72C223.085 13.5733 223.205 14.5333 223.205 15.6C223.205 16.7733 223.165 17.96 223.085 19.16C223.005 20.3333 222.952 21.4933 222.925 22.64C222.925 23.7867 222.965 24.9067 223.045 26C223.125 27.0667 223.325 28.08 223.645 29.04H219.405L218.565 26.28H218.365C217.832 27.1067 217.085 27.8267 216.125 28.44C215.192 29.0267 213.979 29.32 212.485 29.32C211.552 29.32 210.712 29.1867 209.965 28.92C209.219 28.6267 208.579 28.2267 208.045 27.72C207.512 27.1867 207.099 26.5733 206.805 25.88C206.512 25.16 206.365 24.36 206.365 23.48C206.365 22.2533 206.632 21.2267 207.165 20.4C207.725 19.5467 208.512 18.8667 209.525 18.36C210.565 17.8267 211.792 17.4667 213.205 17.28C214.645 17.0667 216.245 17 218.005 17.08C218.192 15.5867 218.085 14.52 217.685 13.88C217.285 13.2133 216.392 12.88 215.005 12.88C213.965 12.88 212.859 12.9867 211.685 13.2C210.539 13.4133 209.592 13.6933 208.845 14.04L207.605 10.16ZM214.205 25.04C215.245 25.04 216.072 24.8133 216.685 24.36C217.299 23.88 217.752 23.3733 218.045 22.84V20.24C217.219 20.16 216.419 20.1467 215.645 20.2C214.899 20.2533 214.232 20.3733 213.645 20.56C213.059 20.7467 212.592 21.0133 212.245 21.36C211.899 21.7067 211.725 22.1467 211.725 22.68C211.725 23.4267 211.939 24.0133 212.365 24.44C212.819 24.84 213.432 25.04 214.205 25.04Z" fill="#FF971D"/>
<path d="M237.686 9.04C238.62 8.96 239.74 8.88 241.046 8.8C242.38 8.72 243.806 8.68 245.326 8.68C248.26 8.68 250.34 9.10667 251.566 9.96C252.82 10.7867 253.446 12.04 253.446 13.72C253.446 14.6533 253.18 15.56 252.646 16.44C252.113 17.32 251.273 17.96 250.126 18.36V18.52C251.566 18.84 252.606 19.4133 253.246 20.24C253.886 21.04 254.206 22.08 254.206 23.36C254.206 25.36 253.433 26.8533 251.886 27.84C250.366 28.8267 247.913 29.32 244.526 29.32C243.406 29.32 242.22 29.28 240.966 29.2C239.713 29.1467 238.62 29.0667 237.686 28.96V9.04ZM242.766 25C243.14 25.0533 243.486 25.0933 243.806 25.12C244.126 25.1467 244.526 25.16 245.006 25.16C246.446 25.16 247.473 24.96 248.086 24.56C248.7 24.16 249.006 23.5467 249.006 22.72C249.006 22.0267 248.74 21.4667 248.206 21.04C247.7 20.5867 246.78 20.36 245.446 20.36H242.766V25ZM245.526 17.16C246.38 17.16 247.073 16.96 247.606 16.56C248.166 16.1333 248.446 15.6 248.446 14.96C248.446 14.2667 248.206 13.7467 247.726 13.4C247.273 13.0267 246.433 12.84 245.206 12.84C244.593 12.84 244.1 12.8533 243.726 12.88C243.38 12.9067 243.06 12.9333 242.766 12.96V17.16H245.526ZM267.879 10.16C268.945 9.68 270.212 9.30667 271.679 9.04C273.145 8.74667 274.679 8.6 276.279 8.6C277.665 8.6 278.825 8.77333 279.759 9.12C280.692 9.44 281.425 9.90667 281.959 10.52C282.519 11.1333 282.905 11.8667 283.119 12.72C283.359 13.5733 283.479 14.5333 283.479 15.6C283.479 16.7733 283.439 17.96 283.359 19.16C283.279 20.3333 283.225 21.4933 283.199 22.64C283.199 23.7867 283.239 24.9067 283.319 26C283.399 27.0667 283.599 28.08 283.919 29.04H279.679L278.839 26.28H278.639C278.105 27.1067 277.359 27.8267 276.399 28.44C275.465 29.0267 274.252 29.32 272.759 29.32C271.825 29.32 270.985 29.1867 270.239 28.92C269.492 28.6267 268.852 28.2267 268.319 27.72C267.785 27.1867 267.372 26.5733 267.079 25.88C266.785 25.16 266.639 24.36 266.639 23.48C266.639 22.2533 266.905 21.2267 267.439 20.4C267.999 19.5467 268.785 18.8667 269.799 18.36C270.839 17.8267 272.065 17.4667 273.479 17.28C274.919 17.0667 276.519 17 278.279 17.08C278.465 15.5867 278.359 14.52 277.959 13.88C277.559 13.2133 276.665 12.88 275.279 12.88C274.239 12.88 273.132 12.9867 271.959 13.2C270.812 13.4133 269.865 13.6933 269.119 14.04L267.879 10.16ZM274.479 25.04C275.519 25.04 276.345 24.8133 276.959 24.36C277.572 23.88 278.025 23.3733 278.319 22.84V20.24C277.492 20.16 276.692 20.1467 275.919 20.2C275.172 20.2533 274.505 20.3733 273.919 20.56C273.332 20.7467 272.865 21.0133 272.519 21.36C272.172 21.7067 271.999 22.1467 271.999 22.68C271.999 23.4267 272.212 24.0133 272.639 24.44C273.092 24.84 273.705 25.04 274.479 25.04ZM287.843 9H291.643L292.243 11.4H292.403C293.096 10.3867 293.909 9.64 294.843 9.16C295.803 8.68 296.963 8.44 298.323 8.44C300.829 8.44 302.709 9.24 303.963 10.84C305.216 12.4133 305.843 14.96 305.843 18.48C305.843 20.1867 305.643 21.7333 305.243 23.12C304.843 24.48 304.243 25.64 303.443 26.6C302.669 27.56 301.709 28.2933 300.563 28.8C299.443 29.3067 298.149 29.56 296.683 29.56C295.856 29.56 295.176 29.4933 294.643 29.36C294.109 29.2533 293.576 29.0667 293.043 28.8V37H287.843V9ZM296.763 12.84C295.749 12.84 294.949 13.0933 294.363 13.6C293.803 14.1067 293.363 14.8667 293.043 15.88V24.2C293.416 24.4933 293.816 24.7333 294.243 24.92C294.696 25.08 295.283 25.16 296.003 25.16C297.496 25.16 298.616 24.64 299.363 23.6C300.109 22.5333 300.483 20.7867 300.483 18.36C300.483 16.6 300.189 15.24 299.603 14.28C299.016 13.32 298.069 12.84 296.763 12.84ZM325.444 27.28C324.644 27.92 323.551 28.4667 322.164 28.92C320.804 29.3467 319.351 29.56 317.804 29.56C314.577 29.56 312.217 28.6267 310.724 26.76C309.231 24.8667 308.484 22.28 308.484 19C308.484 15.48 309.324 12.84 311.004 11.08C312.684 9.32 315.044 8.44 318.084 8.44C319.097 8.44 320.084 8.57333 321.044 8.84C322.004 9.10667 322.857 9.54667 323.604 10.16C324.351 10.7733 324.951 11.6 325.404 12.64C325.857 13.68 326.084 14.9733 326.084 16.52C326.084 17.08 326.044 17.68 325.964 18.32C325.911 18.96 325.817 19.6267 325.684 20.32H313.684C313.764 22 314.191 23.2667 314.964 24.12C315.764 24.9733 317.044 25.4 318.804 25.4C319.897 25.4 320.871 25.24 321.724 24.92C322.604 24.5733 323.271 24.2267 323.724 23.88L325.444 27.28ZM318.004 12.6C316.644 12.6 315.631 13.0133 314.964 13.84C314.324 14.64 313.937 15.72 313.804 17.08L321.244 17.08C321.351 15.64 321.124 14.5333 320.564 13.76C320.031 12.9867 319.177 12.6 318.004 12.6ZM341.477 21.12H334.957V29L329.757 29V9H334.957V16.52L341.477 16.52V9H346.677V29H341.477V21.12ZM371.121 33.56H367.321L366.721 29H353.281L352.681 33.56H348.881V24.4H351.241C351.454 24.1067 351.721 23.6133 352.041 22.92C352.388 22.2 352.721 21.2267 353.041 20C353.388 18.7733 353.681 17.2533 353.921 15.44C354.161 13.6267 354.281 11.48 354.281 9L368.201 9V24.4H371.121V33.56ZM363.001 24.64V13.4H358.801C358.748 14.36 358.654 15.3867 358.521 16.48C358.388 17.5467 358.214 18.5867 358.001 19.6C357.814 20.6133 357.588 21.56 357.321 22.44C357.054 23.32 356.761 24.0533 356.441 24.64H363.001ZM381.255 20.24L381.975 23.36H382.215L382.735 20.2L385.775 9H391.135L385.055 27.04C384.549 28.5333 384.055 29.8933 383.575 31.12C383.122 32.3733 382.615 33.4533 382.055 34.36C381.495 35.2667 380.869 35.96 380.175 36.44C379.509 36.9467 378.709 37.2 377.775 37.2C376.389 37.2 375.282 36.9733 374.455 36.52L375.415 32.36C375.815 32.52 376.215 32.6 376.615 32.6C377.229 32.6 377.815 32.3333 378.375 31.8C378.962 31.2933 379.402 30.36 379.695 29L371.335 9H377.575L381.255 20.24Z" fill="#2D2D2D"/>
</svg>
