<svg width="178" height="75" viewBox="0 0 178 75" fill="none" xmlns="http://www.w3.org/2000/svg">
<path d="M41.24 13.04H38.328V15.904H36.984V13.04H34.072V11.776H36.984V8.896H38.328V11.776H41.24V13.04ZM51.0843 6.8V7.888L46.5563 18H44.8603L49.2923 8.192H44.1723V10.192H42.6363V6.8H51.0843ZM59.4396 21.104C58.8316 20.1227 58.3623 18.9973 58.0316 17.728C57.701 16.448 57.5356 15.0773 57.5356 13.616C57.5356 12.1547 57.701 10.784 58.0316 9.504C58.3623 8.21333 58.8316 7.088 59.4396 6.128H60.8956C60.2556 7.248 59.7863 8.42133 59.4876 9.648C59.189 10.8747 59.0396 12.1973 59.0396 13.616C59.0396 15.0347 59.189 16.3573 59.4876 17.584C59.7863 18.8107 60.2556 19.984 60.8956 21.104H59.4396ZM71.6058 15.248H69.4778V18H67.9258V15.248H61.7018V14.128L67.4298 6.8H69.1578L63.6698 13.872H67.9738V11.44H69.4778V13.872H71.6058V15.248ZM76.0875 6.672C77.5915 6.672 78.7488 7.15733 79.5595 8.128C80.3808 9.09867 80.7915 10.4747 80.7915 12.256C80.7915 13.504 80.5675 14.5707 80.1195 15.456C79.6822 16.3307 79.0635 16.9973 78.2635 17.456C77.4742 17.904 76.5515 18.128 75.4955 18.128C74.9515 18.128 74.4395 18.0747 73.9595 17.968C73.4795 17.8507 73.0635 17.6853 72.7115 17.472L73.3195 16.224C73.8635 16.576 74.5835 16.752 75.4795 16.752C76.6422 16.752 77.5488 16.3947 78.1995 15.68C78.8608 14.9547 79.1915 13.904 79.1915 12.528V12.128C78.8715 12.608 78.4288 12.976 77.8635 13.232C77.2982 13.4773 76.6635 13.6 75.9595 13.6C75.2235 13.6 74.5622 13.4613 73.9755 13.184C73.3995 12.9067 72.9462 12.512 72.6155 12C72.2955 11.4773 72.1355 10.88 72.1355 10.208C72.1355 9.504 72.3062 8.88533 72.6475 8.352C72.9995 7.81867 73.4742 7.408 74.0715 7.12C74.6688 6.82133 75.3408 6.672 76.0875 6.672ZM76.2315 12.304C76.7328 12.304 77.1808 12.208 77.5755 12.016C77.9702 11.824 78.2742 11.5627 78.4875 11.232C78.7115 10.9013 78.8235 10.5333 78.8235 10.128C78.8235 9.73333 78.7168 9.376 78.5035 9.056C78.3008 8.72533 77.9968 8.464 77.5915 8.272C77.1968 8.06933 76.7168 7.968 76.1515 7.968C75.4155 7.968 74.8182 8.16533 74.3595 8.56C73.9115 8.95467 73.6875 9.48267 73.6875 10.144C73.6875 10.8053 73.9168 11.3333 74.3755 11.728C74.8342 12.112 75.4528 12.304 76.2315 12.304ZM85.9625 6.672C87.4665 6.672 88.6238 7.15733 89.4345 8.128C90.2558 9.09867 90.6665 10.4747 90.6665 12.256C90.6665 13.504 90.4425 14.5707 89.9945 15.456C89.5572 16.3307 88.9385 16.9973 88.1385 17.456C87.3492 17.904 86.4265 18.128 85.3705 18.128C84.8265 18.128 84.3145 18.0747 83.8345 17.968C83.3545 17.8507 82.9385 17.6853 82.5865 17.472L83.1945 16.224C83.7385 16.576 84.4585 16.752 85.3545 16.752C86.5172 16.752 87.4238 16.3947 88.0745 15.68C88.7358 14.9547 89.0665 13.904 89.0665 12.528V12.128C88.7465 12.608 88.3038 12.976 87.7385 13.232C87.1732 13.4773 86.5385 13.6 85.8345 13.6C85.0985 13.6 84.4372 13.4613 83.8505 13.184C83.2745 12.9067 82.8212 12.512 82.4905 12C82.1705 11.4773 82.0105 10.88 82.0105 10.208C82.0105 9.504 82.1812 8.88533 82.5225 8.352C82.8745 7.81867 83.3492 7.408 83.9465 7.12C84.5438 6.82133 85.2158 6.672 85.9625 6.672ZM86.1065 12.304C86.6078 12.304 87.0558 12.208 87.4505 12.016C87.8452 11.824 88.1492 11.5627 88.3625 11.232C88.5865 10.9013 88.6985 10.5333 88.6985 10.128C88.6985 9.73333 88.5918 9.376 88.3785 9.056C88.1758 8.72533 87.8718 8.464 87.4665 8.272C87.0718 8.06933 86.5918 7.968 86.0265 7.968C85.2905 7.968 84.6932 8.16533 84.2345 8.56C83.7865 8.95467 83.5625 9.48267 83.5625 10.144C83.5625 10.8053 83.7918 11.3333 84.2505 11.728C84.7092 12.112 85.3278 12.304 86.1065 12.304ZM91.9495 21.104C92.5895 19.984 93.0588 18.8107 93.3575 17.584C93.6668 16.3573 93.8215 15.0347 93.8215 13.616C93.8215 12.1973 93.6668 10.8747 93.3575 9.648C93.0588 8.42133 92.5895 7.248 91.9495 6.128H93.4055C94.0242 7.088 94.4988 8.208 94.8295 9.488C95.1602 10.768 95.3255 12.144 95.3255 13.616C95.3255 15.0773 95.1602 16.448 94.8295 17.728C94.4988 19.008 94.0242 20.1333 93.4055 21.104H91.9495ZM101.244 6.672C102.748 6.672 103.905 7.15733 104.716 8.128C105.537 9.09867 105.948 10.4747 105.948 12.256C105.948 13.504 105.724 14.5707 105.276 15.456C104.838 16.3307 104.22 16.9973 103.42 17.456C102.63 17.904 101.708 18.128 100.652 18.128C100.108 18.128 99.5958 18.0747 99.1158 17.968C98.6358 17.8507 98.2198 17.6853 97.8678 17.472L98.4758 16.224C99.0198 16.576 99.7398 16.752 100.636 16.752C101.798 16.752 102.705 16.3947 103.356 15.68C104.017 14.9547 104.348 13.904 104.348 12.528V12.128C104.028 12.608 103.585 12.976 103.02 13.232C102.454 13.4773 101.82 13.6 101.116 13.6C100.38 13.6 99.7184 13.4613 99.1318 13.184C98.5558 12.9067 98.1024 12.512 97.7718 12C97.4518 11.4773 97.2918 10.88 97.2918 10.208C97.2918 9.504 97.4624 8.88533 97.8038 8.352C98.1558 7.81867 98.6304 7.408 99.2278 7.12C99.8251 6.82133 100.497 6.672 101.244 6.672ZM101.388 12.304C101.889 12.304 102.337 12.208 102.732 12.016C103.126 11.824 103.43 11.5627 103.644 11.232C103.868 10.9013 103.98 10.5333 103.98 10.128C103.98 9.73333 103.873 9.376 103.66 9.056C103.457 8.72533 103.153 8.464 102.748 8.272C102.353 8.06933 101.873 7.968 101.308 7.968C100.572 7.968 99.9744 8.16533 99.5158 8.56C99.0678 8.95467 98.8438 9.48267 98.8438 10.144C98.8438 10.8053 99.0731 11.3333 99.5318 11.728C99.9904 12.112 100.609 12.304 101.388 12.304ZM115.312 16.608V18H107.264V16.912L111.824 12.512C112.379 11.9787 112.752 11.52 112.944 11.136C113.136 10.7413 113.232 10.3467 113.232 9.952C113.232 9.36533 113.024 8.912 112.608 8.592C112.203 8.26133 111.616 8.096 110.848 8.096C109.611 8.096 108.656 8.50133 107.984 9.312L106.896 8.368C107.333 7.83467 107.904 7.41867 108.608 7.12C109.323 6.82133 110.117 6.672 110.992 6.672C112.165 6.672 113.099 6.95467 113.792 7.52C114.485 8.07467 114.832 8.832 114.832 9.792C114.832 10.3893 114.704 10.9547 114.448 11.488C114.192 12.0213 113.707 12.6293 112.992 13.312L109.568 16.608H115.312ZM120.259 6.672C121.763 6.672 122.921 7.15733 123.731 8.128C124.553 9.09867 124.963 10.4747 124.963 12.256C124.963 13.504 124.739 14.5707 124.291 15.456C123.854 16.3307 123.235 16.9973 122.435 17.456C121.646 17.904 120.723 18.128 119.667 18.128C119.123 18.128 118.611 18.0747 118.131 17.968C117.651 17.8507 117.235 17.6853 116.883 17.472L117.491 16.224C118.035 16.576 118.755 16.752 119.651 16.752C120.814 16.752 121.721 16.3947 122.371 15.68C123.033 14.9547 123.363 13.904 123.363 12.528V12.128C123.043 12.608 122.601 12.976 122.035 13.232C121.47 13.4773 120.835 13.6 120.131 13.6C119.395 13.6 118.734 13.4613 118.147 13.184C117.571 12.9067 117.118 12.512 116.787 12C116.467 11.4773 116.307 10.88 116.307 10.208C116.307 9.504 116.478 8.88533 116.819 8.352C117.171 7.81867 117.646 7.408 118.243 7.12C118.841 6.82133 119.513 6.672 120.259 6.672ZM120.403 12.304C120.905 12.304 121.353 12.208 121.747 12.016C122.142 11.824 122.446 11.5627 122.659 11.232C122.883 10.9013 122.995 10.5333 122.995 10.128C122.995 9.73333 122.889 9.376 122.675 9.056C122.473 8.72533 122.169 8.464 121.763 8.272C121.369 8.06933 120.889 7.968 120.323 7.968C119.587 7.968 118.99 8.16533 118.531 8.56C118.083 8.95467 117.859 9.48267 117.859 10.144C117.859 10.8053 118.089 11.3333 118.547 11.728C119.006 12.112 119.625 12.304 120.403 12.304ZM126.756 12.944H131.06V14.272H126.756V12.944ZM136.369 6.672C137.873 6.672 139.03 7.15733 139.841 8.128C140.662 9.09867 141.073 10.4747 141.073 12.256C141.073 13.504 140.849 14.5707 140.401 15.456C139.963 16.3307 139.345 16.9973 138.545 17.456C137.755 17.904 136.833 18.128 135.777 18.128C135.233 18.128 134.721 18.0747 134.241 17.968C133.761 17.8507 133.345 17.6853 132.993 17.472L133.601 16.224C134.145 16.576 134.865 16.752 135.761 16.752C136.923 16.752 137.83 16.3947 138.481 15.68C139.142 14.9547 139.473 13.904 139.473 12.528V12.128C139.153 12.608 138.71 12.976 138.145 13.232C137.579 13.4773 136.945 13.6 136.241 13.6C135.505 13.6 134.843 13.4613 134.257 13.184C133.681 12.9067 133.227 12.512 132.897 12C132.577 11.4773 132.417 10.88 132.417 10.208C132.417 9.504 132.587 8.88533 132.929 8.352C133.281 7.81867 133.755 7.408 134.353 7.12C134.95 6.82133 135.622 6.672 136.369 6.672ZM136.513 12.304C137.014 12.304 137.462 12.208 137.857 12.016C138.251 11.824 138.555 11.5627 138.769 11.232C138.993 10.9013 139.105 10.5333 139.105 10.128C139.105 9.73333 138.998 9.376 138.785 9.056C138.582 8.72533 138.278 8.464 137.873 8.272C137.478 8.06933 136.998 7.968 136.433 7.968C135.697 7.968 135.099 8.16533 134.641 8.56C134.193 8.95467 133.969 9.48267 133.969 10.144C133.969 10.8053 134.198 11.3333 134.657 11.728C135.115 12.112 135.734 12.304 136.513 12.304ZM147.444 11.2C148.18 11.2 148.836 11.3387 149.412 11.616C149.998 11.8933 150.457 12.2933 150.788 12.816C151.118 13.328 151.284 13.92 151.284 14.592C151.284 15.296 151.108 15.9147 150.756 16.448C150.414 16.9813 149.94 17.3973 149.332 17.696C148.734 17.984 148.062 18.128 147.316 18.128C145.812 18.128 144.649 17.6427 143.828 16.672C143.017 15.7013 142.612 14.3253 142.612 12.544C142.612 11.296 142.83 10.2347 143.268 9.36C143.716 8.47467 144.334 7.808 145.124 7.36C145.924 6.90133 146.852 6.672 147.908 6.672C148.452 6.672 148.964 6.73067 149.444 6.848C149.924 6.95467 150.34 7.11467 150.692 7.328L150.084 8.576C149.55 8.224 148.836 8.048 147.94 8.048C146.777 8.048 145.865 8.41067 145.204 9.136C144.542 9.85067 144.212 10.896 144.212 12.272C144.212 12.4427 144.217 12.576 144.228 12.672C144.548 12.192 144.985 11.8293 145.54 11.584C146.105 11.328 146.74 11.2 147.444 11.2ZM147.252 16.832C147.988 16.832 148.585 16.6347 149.044 16.24C149.502 15.8453 149.732 15.3173 149.732 14.656C149.732 13.9947 149.497 13.472 149.028 13.088C148.569 12.6933 147.95 12.496 147.172 12.496C146.67 12.496 146.222 12.592 145.828 12.784C145.444 12.976 145.14 13.2373 144.916 13.568C144.702 13.8987 144.596 14.2667 144.596 14.672C144.596 15.0667 144.697 15.4293 144.9 15.76C145.113 16.08 145.417 16.3413 145.812 16.544C146.217 16.736 146.697 16.832 147.252 16.832ZM152.709 12.944H157.013V14.272H152.709V12.944ZM163.631 11.2C164.367 11.2 165.023 11.3387 165.599 11.616C166.186 11.8933 166.645 12.2933 166.975 12.816C167.306 13.328 167.471 13.92 167.471 14.592C167.471 15.296 167.295 15.9147 166.943 16.448C166.602 16.9813 166.127 17.3973 165.519 17.696C164.922 17.984 164.25 18.128 163.503 18.128C161.999 18.128 160.837 17.6427 160.015 16.672C159.205 15.7013 158.799 14.3253 158.799 12.544C158.799 11.296 159.018 10.2347 159.455 9.36C159.903 8.47467 160.522 7.808 161.311 7.36C162.111 6.90133 163.039 6.672 164.095 6.672C164.639 6.672 165.151 6.73067 165.631 6.848C166.111 6.95467 166.527 7.11467 166.879 7.328L166.271 8.576C165.738 8.224 165.023 8.048 164.127 8.048C162.965 8.048 162.053 8.41067 161.391 9.136C160.73 9.85067 160.399 10.896 160.399 12.272C160.399 12.4427 160.405 12.576 160.415 12.672C160.735 12.192 161.173 11.8293 161.727 11.584C162.293 11.328 162.927 11.2 163.631 11.2ZM163.439 16.832C164.175 16.832 164.773 16.6347 165.231 16.24C165.69 15.8453 165.919 15.3173 165.919 14.656C165.919 13.9947 165.685 13.472 165.215 13.088C164.757 12.6933 164.138 12.496 163.359 12.496C162.858 12.496 162.41 12.592 162.015 12.784C161.631 12.976 161.327 13.2373 161.103 13.568C160.89 13.8987 160.783 14.2667 160.783 14.672C160.783 15.0667 160.885 15.4293 161.087 15.76C161.301 16.08 161.605 16.3413 161.999 16.544C162.405 16.736 162.885 16.832 163.439 16.832ZM173.506 11.2C174.242 11.2 174.898 11.3387 175.474 11.616C176.061 11.8933 176.52 12.2933 176.85 12.816C177.181 13.328 177.346 13.92 177.346 14.592C177.346 15.296 177.17 15.9147 176.818 16.448C176.477 16.9813 176.002 17.3973 175.394 17.696C174.797 17.984 174.125 18.128 173.378 18.128C171.874 18.128 170.712 17.6427 169.89 16.672C169.08 15.7013 168.674 14.3253 168.674 12.544C168.674 11.296 168.893 10.2347 169.33 9.36C169.778 8.47467 170.397 7.808 171.186 7.36C171.986 6.90133 172.914 6.672 173.97 6.672C174.514 6.672 175.026 6.73067 175.506 6.848C175.986 6.95467 176.402 7.11467 176.754 7.328L176.146 8.576C175.613 8.224 174.898 8.048 174.002 8.048C172.84 8.048 171.928 8.41067 171.266 9.136C170.605 9.85067 170.274 10.896 170.274 12.272C170.274 12.4427 170.28 12.576 170.29 12.672C170.61 12.192 171.048 11.8293 171.602 11.584C172.168 11.328 172.802 11.2 173.506 11.2ZM173.314 16.832C174.05 16.832 174.648 16.6347 175.106 16.24C175.565 15.8453 175.794 15.3173 175.794 14.656C175.794 13.9947 175.56 13.472 175.09 13.088C174.632 12.6933 174.013 12.496 173.234 12.496C172.733 12.496 172.285 12.592 171.89 12.784C171.506 12.976 171.202 13.2373 170.978 13.568C170.765 13.8987 170.658 14.2667 170.658 14.672C170.658 15.0667 170.76 15.4293 170.962 15.76C171.176 16.08 171.48 16.3413 171.874 16.544C172.28 16.736 172.76 16.832 173.314 16.832ZM41.24 38.04H38.328V40.904H36.984V38.04H34.072V36.776H36.984V33.896H38.328V36.776H41.24V38.04ZM51.0843 31.8V32.888L46.5563 43H44.8603L49.2923 33.192H44.1723V35.192H42.6363V31.8H51.0843ZM59.4396 46.104C58.8316 45.1227 58.3623 43.9973 58.0316 42.728C57.701 41.448 57.5356 40.0773 57.5356 38.616C57.5356 37.1547 57.701 35.784 58.0316 34.504C58.3623 33.2133 58.8316 32.088 59.4396 31.128H60.8956C60.2556 32.248 59.7863 33.4213 59.4876 34.648C59.189 35.8747 59.0396 37.1973 59.0396 38.616C59.0396 40.0347 59.189 41.3573 59.4876 42.584C59.7863 43.8107 60.2556 44.984 60.8956 46.104H59.4396ZM65.8063 31.672C67.3103 31.672 68.4676 32.1573 69.2783 33.128C70.0996 34.0987 70.5103 35.4747 70.5103 37.256C70.5103 38.504 70.2863 39.5707 69.8383 40.456C69.4009 41.3307 68.7823 41.9973 67.9823 42.456C67.1929 42.904 66.2703 43.128 65.2143 43.128C64.6703 43.128 64.1583 43.0747 63.6783 42.968C63.1983 42.8507 62.7823 42.6853 62.4303 42.472L63.0383 41.224C63.5823 41.576 64.3023 41.752 65.1983 41.752C66.3609 41.752 67.2676 41.3947 67.9183 40.68C68.5796 39.9547 68.9103 38.904 68.9103 37.528V37.128C68.5903 37.608 68.1476 37.976 67.5823 38.232C67.0169 38.4773 66.3823 38.6 65.6783 38.6C64.9423 38.6 64.2809 38.4613 63.6943 38.184C63.1183 37.9067 62.6649 37.512 62.3343 37C62.0143 36.4773 61.8543 35.88 61.8543 35.208C61.8543 34.504 62.0249 33.8853 62.3663 33.352C62.7183 32.8187 63.1929 32.408 63.7903 32.12C64.3876 31.8213 65.0596 31.672 65.8063 31.672ZM65.9503 37.304C66.4516 37.304 66.8996 37.208 67.2943 37.016C67.6889 36.824 67.9929 36.5627 68.2063 36.232C68.4303 35.9013 68.5423 35.5333 68.5423 35.128C68.5423 34.7333 68.4356 34.376 68.2223 34.056C68.0196 33.7253 67.7156 33.464 67.3103 33.272C66.9156 33.0693 66.4356 32.968 65.8703 32.968C65.1343 32.968 64.5369 33.1653 64.0783 33.56C63.6303 33.9547 63.4062 34.4827 63.4062 35.144C63.4062 35.8053 63.6356 36.3333 64.0943 36.728C64.5529 37.112 65.1716 37.304 65.9503 37.304ZM78.8973 37.128C79.5373 37.3733 80.0279 37.7253 80.3693 38.184C80.7106 38.6427 80.8813 39.192 80.8813 39.832C80.8813 40.504 80.6999 41.0907 80.3373 41.592C79.9746 42.0827 79.4573 42.4613 78.7853 42.728C78.1133 42.9947 77.3239 43.128 76.4173 43.128C75.5213 43.128 74.7373 42.9947 74.0653 42.728C73.4039 42.4613 72.8919 42.0827 72.5293 41.592C72.1666 41.0907 71.9853 40.504 71.9853 39.832C71.9853 39.192 72.1506 38.6427 72.4813 38.184C72.8226 37.7253 73.3133 37.3733 73.9533 37.128C73.4413 36.8827 73.0519 36.5573 72.7853 36.152C72.5186 35.7467 72.3853 35.2667 72.3853 34.712C72.3853 34.0933 72.5506 33.5547 72.8813 33.096C73.2226 32.6373 73.6973 32.2853 74.3053 32.04C74.9133 31.7947 75.6173 31.672 76.4173 31.672C77.2279 31.672 77.9373 31.7947 78.5453 32.04C79.1639 32.2853 79.6386 32.6373 79.9693 33.096C80.3106 33.5547 80.4813 34.0933 80.4813 34.712C80.4813 35.256 80.3426 35.736 80.0653 36.152C79.7986 36.5573 79.4093 36.8827 78.8973 37.128ZM76.4173 32.968C75.6599 32.968 75.0626 33.1333 74.6253 33.464C74.1879 33.784 73.9693 34.2213 73.9693 34.776C73.9693 35.3307 74.1826 35.768 74.6093 36.088C75.0466 36.408 75.6493 36.568 76.4173 36.568C77.1959 36.568 77.8039 36.408 78.2413 36.088C78.6893 35.768 78.9133 35.3307 78.9133 34.776C78.9133 34.2213 78.6839 33.784 78.2253 33.464C77.7773 33.1333 77.1746 32.968 76.4173 32.968ZM76.4173 41.832C77.3026 41.832 78.0013 41.6507 78.5133 41.288C79.0253 40.9147 79.2812 40.4133 79.2812 39.784C79.2812 39.1653 79.0253 38.68 78.5133 38.328C78.0013 37.9653 77.3026 37.784 76.4173 37.784C75.5319 37.784 74.8386 37.9653 74.3373 38.328C73.8359 38.68 73.5853 39.1653 73.5853 39.784C73.5853 40.4133 73.8359 40.9147 74.3373 41.288C74.8386 41.6507 75.5319 41.832 76.4173 41.832ZM85.5461 36.264C87.1461 36.264 88.3195 36.568 89.0661 37.176C89.8235 37.7733 90.2021 38.5947 90.2021 39.64C90.2021 40.3013 90.0421 40.8987 89.7221 41.432C89.4128 41.9547 88.9381 42.3707 88.2981 42.68C87.6688 42.9787 86.8901 43.128 85.9621 43.128C85.1728 43.128 84.4101 43.0107 83.6741 42.776C82.9381 42.5307 82.3301 42.1947 81.8501 41.768L82.5861 40.504C82.9701 40.8667 83.4608 41.16 84.0581 41.384C84.6555 41.5973 85.2848 41.704 85.9461 41.704C86.7888 41.704 87.4395 41.528 87.8981 41.176C88.3675 40.8133 88.6021 40.3227 88.6021 39.704C88.6021 39.032 88.3461 38.5253 87.8341 38.184C87.3221 37.832 86.4475 37.656 85.2101 37.656H82.6661L83.2581 31.8H89.5781V33.192H84.6021L84.2981 36.264H85.5461ZM91.2776 46.104C91.9176 44.984 92.387 43.8107 92.6856 42.584C92.995 41.3573 93.1496 40.0347 93.1496 38.616C93.1496 37.1973 92.995 35.8747 92.6856 34.648C92.387 33.4213 91.9176 32.248 91.2776 31.128H92.7336C93.3523 32.088 93.827 33.208 94.1576 34.488C94.4883 35.768 94.6536 37.144 94.6536 38.616C94.6536 40.0773 94.4883 41.448 94.1576 42.728C93.827 44.008 93.3523 45.1333 92.7336 46.104H91.2776ZM101.228 36.504C102.327 36.6107 103.164 36.952 103.74 37.528C104.316 38.0933 104.604 38.8187 104.604 39.704C104.604 40.344 104.444 40.9253 104.124 41.448C103.804 41.96 103.324 42.3707 102.684 42.68C102.055 42.9787 101.281 43.128 100.364 43.128C99.5639 43.128 98.7959 43.0107 98.0599 42.776C97.3239 42.5307 96.7212 42.1947 96.2519 41.768L96.9879 40.504C97.3719 40.8667 97.8625 41.16 98.4599 41.384C99.0572 41.5973 99.6919 41.704 100.364 41.704C101.196 41.704 101.841 41.528 102.3 41.176C102.769 40.824 103.004 40.3387 103.004 39.72C103.004 39.1013 102.775 38.6213 102.316 38.28C101.857 37.9387 101.164 37.768 100.236 37.768H99.3399V36.648L102.156 33.192H96.7639V31.8H104.156V32.888L101.228 36.504ZM110.928 36.2C111.664 36.2 112.32 36.3387 112.896 36.616C113.483 36.8933 113.941 37.2933 114.272 37.816C114.603 38.328 114.768 38.92 114.768 39.592C114.768 40.296 114.592 40.9147 114.24 41.448C113.899 41.9813 113.424 42.3973 112.816 42.696C112.219 42.984 111.547 43.128 110.8 43.128C109.296 43.128 108.133 42.6427 107.312 41.672C106.501 40.7013 106.096 39.3253 106.096 37.544C106.096 36.296 106.315 35.2347 106.752 34.36C107.2 33.4747 107.819 32.808 108.608 32.36C109.408 31.9013 110.336 31.672 111.392 31.672C111.936 31.672 112.448 31.7307 112.928 31.848C113.408 31.9547 113.824 32.1147 114.176 32.328L113.568 33.576C113.035 33.224 112.32 33.048 111.424 33.048C110.261 33.048 109.349 33.4107 108.688 34.136C108.027 34.8507 107.696 35.896 107.696 37.272C107.696 37.4427 107.701 37.576 107.712 37.672C108.032 37.192 108.469 36.8293 109.024 36.584C109.589 36.328 110.224 36.2 110.928 36.2ZM110.736 41.832C111.472 41.832 112.069 41.6347 112.528 41.24C112.987 40.8453 113.216 40.3173 113.216 39.656C113.216 38.9947 112.981 38.472 112.512 38.088C112.053 37.6933 111.435 37.496 110.656 37.496C110.155 37.496 109.707 37.592 109.312 37.784C108.928 37.976 108.624 38.2373 108.4 38.568C108.187 38.8987 108.08 39.2667 108.08 39.672C108.08 40.0667 108.181 40.4293 108.384 40.76C108.597 41.08 108.901 41.3413 109.296 41.544C109.701 41.736 110.181 41.832 110.736 41.832ZM125.715 40.248H123.587V43H122.035V40.248H115.811V39.128L121.539 31.8H123.267L117.779 38.872H122.083V36.44H123.587V38.872H125.715V40.248ZM126.975 37.944H131.279V39.272H126.975V37.944ZM136.156 36.264C137.756 36.264 138.929 36.568 139.676 37.176C140.433 37.7733 140.812 38.5947 140.812 39.64C140.812 40.3013 140.652 40.8987 140.332 41.432C140.022 41.9547 139.548 42.3707 138.908 42.68C138.278 42.9787 137.5 43.128 136.572 43.128C135.782 43.128 135.02 43.0107 134.284 42.776C133.548 42.5307 132.94 42.1947 132.46 41.768L133.196 40.504C133.58 40.8667 134.07 41.16 134.668 41.384C135.265 41.5973 135.894 41.704 136.556 41.704C137.398 41.704 138.049 41.528 138.508 41.176C138.977 40.8133 139.212 40.3227 139.212 39.704C139.212 39.032 138.956 38.5253 138.444 38.184C137.932 37.832 137.057 37.656 135.82 37.656H133.276L133.868 31.8H140.188V33.192H135.212L134.908 36.264H136.156ZM145.265 36.264C146.865 36.264 148.038 36.568 148.785 37.176C149.542 37.7733 149.921 38.5947 149.921 39.64C149.921 40.3013 149.761 40.8987 149.441 41.432C149.132 41.9547 148.657 42.3707 148.017 42.68C147.388 42.9787 146.609 43.128 145.681 43.128C144.892 43.128 144.129 43.0107 143.393 42.776C142.657 42.5307 142.049 42.1947 141.569 41.768L142.305 40.504C142.689 40.8667 143.18 41.16 143.777 41.384C144.374 41.5973 145.004 41.704 145.665 41.704C146.508 41.704 147.158 41.528 147.617 41.176C148.086 40.8133 148.321 40.3227 148.321 39.704C148.321 39.032 148.065 38.5253 147.553 38.184C147.041 37.832 146.166 37.656 144.929 37.656H142.385L142.977 31.8H149.297V33.192H144.321L144.017 36.264H145.265ZM151.396 37.944H155.7V39.272H151.396V37.944ZM160.568 31.8V43H158.984V33.192H156.456V31.8H160.568ZM169.866 37.128C170.506 37.3733 170.997 37.7253 171.338 38.184C171.679 38.6427 171.85 39.192 171.85 39.832C171.85 40.504 171.669 41.0907 171.306 41.592C170.943 42.0827 170.426 42.4613 169.754 42.728C169.082 42.9947 168.293 43.128 167.386 43.128C166.49 43.128 165.706 42.9947 165.034 42.728C164.373 42.4613 163.861 42.0827 163.498 41.592C163.135 41.0907 162.954 40.504 162.954 39.832C162.954 39.192 163.119 38.6427 163.45 38.184C163.791 37.7253 164.282 37.3733 164.922 37.128C164.41 36.8827 164.021 36.5573 163.754 36.152C163.487 35.7467 163.354 35.2667 163.354 34.712C163.354 34.0933 163.519 33.5547 163.85 33.096C164.191 32.6373 164.666 32.2853 165.274 32.04C165.882 31.7947 166.586 31.672 167.386 31.672C168.197 31.672 168.906 31.7947 169.514 32.04C170.133 32.2853 170.607 32.6373 170.938 33.096C171.279 33.5547 171.45 34.0933 171.45 34.712C171.45 35.256 171.311 35.736 171.034 36.152C170.767 36.5573 170.378 36.8827 169.866 37.128ZM167.386 32.968C166.629 32.968 166.031 33.1333 165.594 33.464C165.157 33.784 164.938 34.2213 164.938 34.776C164.938 35.3307 165.151 35.768 165.578 36.088C166.015 36.408 166.618 36.568 167.386 36.568C168.165 36.568 168.773 36.408 169.21 36.088C169.658 35.768 169.882 35.3307 169.882 34.776C169.882 34.2213 169.653 33.784 169.194 33.464C168.746 33.1333 168.143 32.968 167.386 32.968ZM167.386 41.832C168.271 41.832 168.97 41.6507 169.482 41.288C169.994 40.9147 170.25 40.4133 170.25 39.784C170.25 39.1653 169.994 38.68 169.482 38.328C168.97 37.9653 168.271 37.784 167.386 37.784C166.501 37.784 165.807 37.9653 165.306 38.328C164.805 38.68 164.554 39.1653 164.554 39.784C164.554 40.4133 164.805 40.9147 165.306 41.288C165.807 41.6507 166.501 41.832 167.386 41.832ZM41.24 63.04H38.328V65.904H36.984V63.04H34.072V61.776H36.984V58.896H38.328V61.776H41.24V63.04ZM51.0843 56.8V57.888L46.5563 68H44.8603L49.2923 58.192H44.1723V60.192H42.6363V56.8H51.0843ZM59.4396 71.104C58.8316 70.1227 58.3623 68.9973 58.0316 67.728C57.701 66.448 57.5356 65.0773 57.5356 63.616C57.5356 62.1547 57.701 60.784 58.0316 59.504C58.3623 58.2133 58.8316 57.088 59.4396 56.128H60.8956C60.2556 57.248 59.7863 58.4213 59.4876 59.648C59.189 60.8747 59.0396 62.1973 59.0396 63.616C59.0396 65.0347 59.189 66.3573 59.4876 67.584C59.7863 68.8107 60.2556 69.984 60.8956 71.104H59.4396ZM65.8063 56.672C67.3103 56.672 68.4676 57.1573 69.2783 58.128C70.0996 59.0987 70.5103 60.4747 70.5103 62.256C70.5103 63.504 70.2863 64.5707 69.8383 65.456C69.4009 66.3307 68.7823 66.9973 67.9823 67.456C67.1929 67.904 66.2703 68.128 65.2143 68.128C64.6703 68.128 64.1583 68.0747 63.6783 67.968C63.1983 67.8507 62.7823 67.6853 62.4303 67.472L63.0383 66.224C63.5823 66.576 64.3023 66.752 65.1983 66.752C66.3609 66.752 67.2676 66.3947 67.9183 65.68C68.5796 64.9547 68.9103 63.904 68.9103 62.528V62.128C68.5903 62.608 68.1476 62.976 67.5823 63.232C67.0169 63.4773 66.3823 63.6 65.6783 63.6C64.9423 63.6 64.2809 63.4613 63.6943 63.184C63.1183 62.9067 62.6649 62.512 62.3343 62C62.0143 61.4773 61.8543 60.88 61.8543 60.208C61.8543 59.504 62.0249 58.8853 62.3663 58.352C62.7183 57.8187 63.1929 57.408 63.7903 57.12C64.3876 56.8213 65.0596 56.672 65.8063 56.672ZM65.9503 62.304C66.4516 62.304 66.8996 62.208 67.2943 62.016C67.6889 61.824 67.9929 61.5627 68.2063 61.232C68.4303 60.9013 68.5423 60.5333 68.5423 60.128C68.5423 59.7333 68.4356 59.376 68.2223 59.056C68.0196 58.7253 67.7156 58.464 67.3103 58.272C66.9156 58.0693 66.4356 57.968 65.8703 57.968C65.1343 57.968 64.5369 58.1653 64.0783 58.56C63.6303 58.9547 63.4062 59.4827 63.4062 60.144C63.4062 60.8053 63.6356 61.3333 64.0943 61.728C64.5529 62.112 65.1716 62.304 65.9503 62.304ZM78.8973 62.128C79.5373 62.3733 80.0279 62.7253 80.3693 63.184C80.7106 63.6427 80.8813 64.192 80.8813 64.832C80.8813 65.504 80.6999 66.0907 80.3373 66.592C79.9746 67.0827 79.4573 67.4613 78.7853 67.728C78.1133 67.9947 77.3239 68.128 76.4173 68.128C75.5213 68.128 74.7373 67.9947 74.0653 67.728C73.4039 67.4613 72.8919 67.0827 72.5293 66.592C72.1666 66.0907 71.9853 65.504 71.9853 64.832C71.9853 64.192 72.1506 63.6427 72.4813 63.184C72.8226 62.7253 73.3133 62.3733 73.9533 62.128C73.4413 61.8827 73.0519 61.5573 72.7853 61.152C72.5186 60.7467 72.3853 60.2667 72.3853 59.712C72.3853 59.0933 72.5506 58.5547 72.8813 58.096C73.2226 57.6373 73.6973 57.2853 74.3053 57.04C74.9133 56.7947 75.6173 56.672 76.4173 56.672C77.2279 56.672 77.9373 56.7947 78.5453 57.04C79.1639 57.2853 79.6386 57.6373 79.9693 58.096C80.3106 58.5547 80.4813 59.0933 80.4813 59.712C80.4813 60.256 80.3426 60.736 80.0653 61.152C79.7986 61.5573 79.4093 61.8827 78.8973 62.128ZM76.4173 57.968C75.6599 57.968 75.0626 58.1333 74.6253 58.464C74.1879 58.784 73.9693 59.2213 73.9693 59.776C73.9693 60.3307 74.1826 60.768 74.6093 61.088C75.0466 61.408 75.6493 61.568 76.4173 61.568C77.1959 61.568 77.8039 61.408 78.2413 61.088C78.6893 60.768 78.9133 60.3307 78.9133 59.776C78.9133 59.2213 78.6839 58.784 78.2253 58.464C77.7773 58.1333 77.1746 57.968 76.4173 57.968ZM76.4173 66.832C77.3026 66.832 78.0013 66.6507 78.5133 66.288C79.0253 65.9147 79.2812 65.4133 79.2812 64.784C79.2812 64.1653 79.0253 63.68 78.5133 63.328C78.0013 62.9653 77.3026 62.784 76.4173 62.784C75.5319 62.784 74.8386 62.9653 74.3373 63.328C73.8359 63.68 73.5853 64.1653 73.5853 64.784C73.5853 65.4133 73.8359 65.9147 74.3373 66.288C74.8386 66.6507 75.5319 66.832 76.4173 66.832ZM85.5461 61.264C87.1461 61.264 88.3195 61.568 89.0661 62.176C89.8235 62.7733 90.2021 63.5947 90.2021 64.64C90.2021 65.3013 90.0421 65.8987 89.7221 66.432C89.4128 66.9547 88.9381 67.3707 88.2981 67.68C87.6688 67.9787 86.8901 68.128 85.9621 68.128C85.1728 68.128 84.4101 68.0107 83.6741 67.776C82.9381 67.5307 82.3301 67.1947 81.8501 66.768L82.5861 65.504C82.9701 65.8667 83.4608 66.16 84.0581 66.384C84.6555 66.5973 85.2848 66.704 85.9461 66.704C86.7888 66.704 87.4395 66.528 87.8981 66.176C88.3675 65.8133 88.6021 65.3227 88.6021 64.704C88.6021 64.032 88.3461 63.5253 87.8341 63.184C87.3221 62.832 86.4475 62.656 85.2101 62.656H82.6661L83.2581 56.8H89.5781V58.192H84.6021L84.2981 61.264H85.5461ZM91.2776 71.104C91.9176 69.984 92.387 68.8107 92.6856 67.584C92.995 66.3573 93.1496 65.0347 93.1496 63.616C93.1496 62.1973 92.995 60.8747 92.6856 59.648C92.387 58.4213 91.9176 57.248 91.2776 56.128H92.7336C93.3523 57.088 93.827 58.208 94.1576 59.488C94.4883 60.768 94.6536 62.144 94.6536 63.616C94.6536 65.0773 94.4883 66.448 94.1576 67.728C93.827 69.008 93.3523 70.1333 92.7336 71.104H91.2776ZM104.812 66.608V68H96.7639V66.912L101.324 62.512C101.879 61.9787 102.252 61.52 102.444 61.136C102.636 60.7413 102.732 60.3467 102.732 59.952C102.732 59.3653 102.524 58.912 102.108 58.592C101.703 58.2613 101.116 58.096 100.348 58.096C99.1105 58.096 98.1559 58.5013 97.4839 59.312L96.3959 58.368C96.8332 57.8347 97.4039 57.4187 98.1079 57.12C98.8225 56.8213 99.6172 56.672 100.492 56.672C101.665 56.672 102.599 56.9547 103.292 57.52C103.985 58.0747 104.332 58.832 104.332 59.792C104.332 60.3893 104.204 60.9547 103.948 61.488C103.692 62.0213 103.207 62.6293 102.492 63.312L99.0679 66.608H104.812ZM113.999 66.608V68H105.951V66.912L110.511 62.512C111.066 61.9787 111.439 61.52 111.631 61.136C111.823 60.7413 111.919 60.3467 111.919 59.952C111.919 59.3653 111.711 58.912 111.295 58.592C110.89 58.2613 110.303 58.096 109.535 58.096C108.298 58.096 107.343 58.5013 106.671 59.312L105.583 58.368C106.021 57.8347 106.591 57.4187 107.295 57.12C108.01 56.8213 108.805 56.672 109.679 56.672C110.853 56.672 111.786 56.9547 112.479 57.52C113.173 58.0747 113.519 58.832 113.519 59.792C113.519 60.3893 113.391 60.9547 113.135 61.488C112.879 62.0213 112.394 62.6293 111.679 63.312L108.255 66.608H113.999ZM120.1 61.2C120.836 61.2 121.492 61.3387 122.068 61.616C122.655 61.8933 123.113 62.2933 123.444 62.816C123.775 63.328 123.94 63.92 123.94 64.592C123.94 65.296 123.764 65.9147 123.412 66.448C123.071 66.9813 122.596 67.3973 121.988 67.696C121.391 67.984 120.719 68.128 119.972 68.128C118.468 68.128 117.305 67.6427 116.484 66.672C115.673 65.7013 115.268 64.3253 115.268 62.544C115.268 61.296 115.487 60.2347 115.924 59.36C116.372 58.4747 116.991 57.808 117.78 57.36C118.58 56.9013 119.508 56.672 120.564 56.672C121.108 56.672 121.62 56.7307 122.1 56.848C122.58 56.9547 122.996 57.1147 123.348 57.328L122.74 58.576C122.207 58.224 121.492 58.048 120.596 58.048C119.433 58.048 118.521 58.4107 117.86 59.136C117.199 59.8507 116.868 60.896 116.868 62.272C116.868 62.4427 116.873 62.576 116.884 62.672C117.204 62.192 117.641 61.8293 118.196 61.584C118.761 61.328 119.396 61.2 120.1 61.2ZM119.908 66.832C120.644 66.832 121.241 66.6347 121.7 66.24C122.159 65.8453 122.388 65.3173 122.388 64.656C122.388 63.9947 122.153 63.472 121.684 63.088C121.225 62.6933 120.607 62.496 119.828 62.496C119.327 62.496 118.879 62.592 118.484 62.784C118.1 62.976 117.796 63.2373 117.572 63.568C117.359 63.8987 117.252 64.2667 117.252 64.672C117.252 65.0667 117.353 65.4293 117.556 65.76C117.769 66.08 118.073 66.3413 118.468 66.544C118.873 66.736 119.353 66.832 119.908 66.832ZM125.365 62.944H129.669V64.272H125.365V62.944ZM139.015 66.608V68H130.967V66.912L135.527 62.512C136.082 61.9787 136.455 61.52 136.647 61.136C136.839 60.7413 136.935 60.3467 136.935 59.952C136.935 59.3653 136.727 58.912 136.311 58.592C135.906 58.2613 135.319 58.096 134.551 58.096C133.314 58.096 132.359 58.5013 131.687 59.312L130.599 58.368C131.036 57.8347 131.607 57.4187 132.311 57.12C133.026 56.8213 133.82 56.672 134.695 56.672C135.868 56.672 136.802 56.9547 137.495 57.52C138.188 58.0747 138.535 58.832 138.535 59.792C138.535 60.3893 138.407 60.9547 138.151 61.488C137.895 62.0213 137.41 62.6293 136.695 63.312L133.271 66.608H139.015ZM144.86 68.128C143.974 68.128 143.185 67.904 142.492 67.456C141.809 66.9973 141.27 66.336 140.876 65.472C140.481 64.608 140.284 63.584 140.284 62.4C140.284 61.216 140.481 60.192 140.876 59.328C141.27 58.464 141.809 57.808 142.492 57.36C143.185 56.9013 143.974 56.672 144.86 56.672C145.734 56.672 146.513 56.9013 147.196 57.36C147.889 57.808 148.433 58.464 148.828 59.328C149.222 60.192 149.42 61.216 149.42 62.4C149.42 63.584 149.222 64.608 148.828 65.472C148.433 66.336 147.889 66.9973 147.196 67.456C146.513 67.904 145.734 68.128 144.86 68.128ZM144.86 66.704C145.756 66.704 146.47 66.336 147.004 65.6C147.548 64.864 147.82 63.7973 147.82 62.4C147.82 61.0027 147.548 59.936 147.004 59.2C146.47 58.464 145.756 58.096 144.86 58.096C143.953 58.096 143.228 58.464 142.684 59.2C142.15 59.936 141.884 61.0027 141.884 62.4C141.884 63.7973 142.15 64.864 142.684 65.6C143.228 66.336 143.953 66.704 144.86 66.704ZM151.209 62.944H155.513V64.272H151.209V62.944ZM161.165 61.504C162.264 61.6107 163.101 61.952 163.677 62.528C164.253 63.0933 164.541 63.8187 164.541 64.704C164.541 65.344 164.381 65.9253 164.061 66.448C163.741 66.96 163.261 67.3707 162.621 67.68C161.992 67.9787 161.219 68.128 160.301 68.128C159.501 68.128 158.733 68.0107 157.997 67.776C157.261 67.5307 156.659 67.1947 156.189 66.768L156.925 65.504C157.309 65.8667 157.8 66.16 158.397 66.384C158.995 66.5973 159.629 66.704 160.301 66.704C161.133 66.704 161.779 66.528 162.237 66.176C162.707 65.824 162.941 65.3387 162.941 64.72C162.941 64.1013 162.712 63.6213 162.253 63.28C161.795 62.9387 161.101 62.768 160.173 62.768H159.277V61.648L162.093 58.192H156.701V56.8H164.093V57.888L161.165 61.504ZM170.61 68.128C169.724 68.128 168.935 67.904 168.242 67.456C167.559 66.9973 167.02 66.336 166.626 65.472C166.231 64.608 166.034 63.584 166.034 62.4C166.034 61.216 166.231 60.192 166.626 59.328C167.02 58.464 167.559 57.808 168.242 57.36C168.935 56.9013 169.724 56.672 170.61 56.672C171.484 56.672 172.263 56.9013 172.946 57.36C173.639 57.808 174.183 58.464 174.578 59.328C174.972 60.192 175.17 61.216 175.17 62.4C175.17 63.584 174.972 64.608 174.578 65.472C174.183 66.336 173.639 66.9973 172.946 67.456C172.263 67.904 171.484 68.128 170.61 68.128ZM170.61 66.704C171.506 66.704 172.22 66.336 172.754 65.6C173.298 64.864 173.57 63.7973 173.57 62.4C173.57 61.0027 173.298 59.936 172.754 59.2C172.22 58.464 171.506 58.096 170.61 58.096C169.703 58.096 168.978 58.464 168.434 59.2C167.9 59.936 167.634 61.0027 167.634 62.4C167.634 63.7973 167.9 64.864 168.434 65.6C168.978 66.336 169.703 66.704 170.61 66.704Z" fill="white"/>
<g clip-path="url(#clip0_3_8272)">
<path d="M16.597 40.0089C16.167 39.5613 15.6485 39.3219 15.0989 39.3219C14.5537 39.3219 14.0307 39.5568 13.5831 40.0045L12.1825 41.4006C12.0673 41.3386 11.952 41.2809 11.8412 41.2233C11.6817 41.1436 11.531 41.0682 11.4024 40.9884C10.0905 40.1552 8.89825 39.0693 7.75474 37.6643C7.20072 36.964 6.82842 36.3745 6.55805 35.7762C6.92149 35.4438 7.25834 35.098 7.58632 34.7656C7.71042 34.6415 7.83452 34.513 7.95862 34.3889C8.88939 33.4581 8.88939 32.2526 7.95862 31.3218L6.74864 30.1118C6.61124 29.9744 6.46941 29.8326 6.33644 29.6908C6.07051 29.416 5.79128 29.1323 5.50319 28.8664C5.07327 28.4409 4.55913 28.2148 4.0184 28.2148C3.47768 28.2148 2.95468 28.4409 2.51146 28.8664C2.50703 28.8708 2.50703 28.8708 2.50259 28.8752L0.995649 30.3955C0.428328 30.9628 0.104778 31.6542 0.0338628 32.4565C-0.0725098 33.7507 0.308659 34.9562 0.601184 35.7451C1.3192 37.682 2.39179 39.477 3.99181 41.4006C5.93311 43.7187 8.26888 45.5492 10.9371 46.8389C11.9565 47.322 13.3171 47.8938 14.8374 47.9913C14.9305 47.9957 15.028 48.0002 15.1166 48.0002C16.1405 48.0002 17.0003 47.6323 17.674 46.901C17.6784 46.8921 17.6873 46.8877 17.6917 46.8788C17.9222 46.5996 18.1881 46.3469 18.4674 46.0766C18.6579 45.8949 18.853 45.7043 19.0435 45.5048C19.4823 45.0483 19.7128 44.5165 19.7128 43.9713C19.7128 43.4217 19.4779 42.8943 19.0302 42.451L16.597 40.0089ZM18.1837 44.676C18.1793 44.676 18.1793 44.6804 18.1837 44.676C18.0108 44.8622 17.8336 45.0306 17.643 45.2167C17.3549 45.4915 17.0624 45.7796 16.7876 46.1032C16.3399 46.5819 15.8125 46.8079 15.121 46.8079C15.0546 46.8079 14.9837 46.8079 14.9172 46.8035C13.6008 46.7192 12.3775 46.2051 11.4601 45.7663C8.95144 44.5519 6.74864 42.8278 4.91814 40.6427C3.40676 38.8211 2.39622 37.1368 1.72696 35.3285C1.31477 34.2249 1.16407 33.3651 1.23056 32.554C1.27488 32.0354 1.47433 31.6055 1.8422 31.2376L3.35358 29.7262C3.57075 29.5223 3.80123 29.4115 4.02727 29.4115C4.3065 29.4115 4.53254 29.58 4.67437 29.7218C4.6788 29.7262 4.68323 29.7307 4.68767 29.7351C4.95803 29.9877 5.2151 30.2492 5.48546 30.5284C5.62286 30.6703 5.76469 30.8121 5.90652 30.9584L7.11651 32.1684C7.58632 32.6382 7.58632 33.0725 7.11651 33.5423C6.98797 33.6709 6.86387 33.7994 6.73534 33.9235C6.36304 34.3047 6.00846 34.6593 5.62286 35.005C5.61399 35.0138 5.60513 35.0183 5.6007 35.0271C5.21953 35.4083 5.29044 35.7806 5.37022 36.0332C5.37466 36.0465 5.37909 36.0598 5.38352 36.0731C5.69821 36.8355 6.14143 37.5535 6.81512 38.4089L6.81955 38.4133C8.04284 39.9203 9.33261 41.0948 10.7553 41.9945C10.9371 42.1098 11.1232 42.2028 11.3005 42.2915C11.4601 42.3713 11.6108 42.4466 11.7393 42.5264C11.757 42.5353 11.7747 42.5486 11.7925 42.5574C11.9432 42.6328 12.085 42.6682 12.2313 42.6682C12.5991 42.6682 12.8296 42.4378 12.905 42.3624L14.4208 40.8466C14.5715 40.6959 14.8108 40.5142 15.09 40.5142C15.3648 40.5142 15.5909 40.687 15.7283 40.8377C15.7327 40.8422 15.7327 40.8422 15.7371 40.8466L18.1793 43.2887C18.6358 43.7408 18.6358 44.2062 18.1837 44.676Z" fill="#FCD127"/>
<path d="M11.349 31.9956C12.5102 32.1906 13.5651 32.7402 14.4072 33.5823C15.2493 34.4244 15.7945 35.4793 15.9939 36.6405C16.0427 36.933 16.2953 37.1369 16.5834 37.1369C16.6188 37.1369 16.6499 37.1325 16.6853 37.128C17.0133 37.0749 17.2305 36.7646 17.1773 36.4366C16.938 35.0316 16.2731 33.7507 15.2582 32.7357C14.2432 31.7208 12.9623 31.0559 11.5573 30.8166C11.2293 30.7634 10.9235 30.9806 10.8659 31.3041C10.8082 31.6277 11.021 31.9424 11.349 31.9956Z" fill="#FCD127"/>
<path d="M20.9758 36.2635C20.5813 33.9499 19.491 31.8446 17.8156 30.1693C16.1403 28.4939 14.035 27.4036 11.7214 27.0091C11.3978 26.9515 11.092 27.1731 11.0344 27.4967C10.9812 27.8246 11.1984 28.1305 11.5263 28.1881C13.5917 28.5382 15.4754 29.5177 16.9735 31.0114C18.4716 32.5095 19.4467 34.3932 19.7968 36.4586C19.8456 36.7511 20.0982 36.955 20.3863 36.955C20.4218 36.955 20.4528 36.9505 20.4882 36.9461C20.8118 36.8973 21.0334 36.5871 20.9758 36.2635Z" fill="#FCD127"/>
</g>
<defs>
<clipPath id="clip0_3_8272">
<rect width="21" height="21" fill="white" transform="translate(0 27)"/>
</clipPath>
</defs>
</svg>
